<svg width="177" height="52" viewBox="0 0 177 52" fill="none" xmlns="http://www.w3.org/2000/svg">
<path d="M107.104 4.63931H100.809V0.51352H117.55V4.63931H111.272V21.1447H107.104V4.63931ZM87.5749 20.8912V12.0843C87.5749 11.1388 87.393 10.2373 87.0401 9.40646C86.6784 8.56455 86.1961 7.82843 85.5735 7.20471C84.9532 6.57218 84.2276 6.07849 83.3924 5.72145C82.5638 5.3578 81.6847 5.17487 80.7465 5.17487C79.885 5.17487 79.0476 5.33136 78.2541 5.64211C77.4518 5.95507 76.7371 6.39586 76.108 6.97771C75.6827 7.35899 75.0185 8.04662 74.5209 9.0957C73.9531 10.2924 73.8742 11.379 73.8742 11.9763V20.8912H77.7893V12.0843C77.7893 11.6853 77.8573 11.3041 78.0129 10.9404C78.1686 10.5856 78.3746 10.2638 78.6421 9.99491C78.9095 9.73485 79.2274 9.51886 79.5912 9.36238C79.9529 9.21472 80.341 9.13758 80.7465 9.13758C81.152 9.13758 81.5225 9.21472 81.8754 9.36238C82.2284 9.51886 82.5396 9.73485 82.8071 9.99491C83.0745 10.2638 83.2893 10.5834 83.4362 10.9404C83.5919 11.3041 83.6686 11.6853 83.6686 12.0843V20.8912H87.5749ZM65.7875 35.5563C65.2351 35.0009 64.5797 34.5601 63.83 34.2384C63.0803 33.9188 62.2779 33.7535 61.434 33.7535H57.3216C57.0366 33.7535 56.7692 33.7006 56.5193 33.597C56.2781 33.4934 56.0545 33.3458 55.8726 33.154C55.6819 32.9711 55.5372 32.7463 55.432 32.495C55.3289 32.2438 55.2763 31.9661 55.2763 31.6796C55.2763 31.3931 55.3289 31.1242 55.432 30.8729C55.535 30.6217 55.6819 30.4057 55.8726 30.2228C56.0545 30.031 56.2781 29.8856 56.5193 29.7798C56.7692 29.6762 57.0366 29.6233 57.3216 29.6233H66.7455V25.4887H57.3216C56.4776 25.4887 55.6753 25.654 54.9344 25.9824C54.1934 26.3041 53.538 26.7449 52.9768 27.3091C52.4244 27.8734 51.986 28.5323 51.6572 29.2773C51.3305 30.0222 51.1661 30.8289 51.1661 31.6774C51.1661 32.5347 51.3305 33.3325 51.6572 34.0863C51.9838 34.84 52.4244 35.499 52.9768 36.0632C53.538 36.6186 54.1934 37.0682 54.9344 37.39C55.6753 37.7184 56.4776 37.8837 57.3216 37.8837H61.434C61.719 37.8837 61.9864 37.9366 62.2363 38.0402C62.4862 38.1438 62.701 38.2914 62.883 38.4744C63.0737 38.6661 63.2184 38.8821 63.3236 39.1333C63.4266 39.3846 63.4792 39.6535 63.4792 39.94C63.4792 40.2265 63.4266 40.4954 63.3236 40.7466C63.2206 40.9979 63.0737 41.2139 62.883 41.3968C62.701 41.5885 62.4862 41.734 62.2363 41.8398C61.9864 41.9434 61.719 41.9963 61.434 41.9963H52.3126V46.1309H61.434C62.2779 46.1309 63.0803 45.9656 63.83 45.6372C64.5797 45.3154 65.2351 44.8746 65.7875 44.3104C66.3487 43.7462 66.7871 43.096 67.1072 42.3423C67.4272 41.5974 67.5894 40.7995 67.5894 39.94C67.5894 39.0804 67.425 38.2848 67.1072 37.5311C66.7871 36.7795 66.3465 36.1205 65.7875 35.5563ZM80.9789 32.4355C80.3585 31.8118 79.6417 31.3181 78.8065 30.9523C77.9779 30.5974 77.0901 30.4145 76.1518 30.4145C75.6345 30.4145 75.1259 30.4917 74.6349 30.6393C74.1351 30.787 73.6528 31.0382 73.1859 31.3931V25.4887H69.2796V46.1287H73.1859V37.3217C73.1859 36.914 73.2626 36.5327 73.4095 36.1778C73.5651 35.8142 73.7712 35.5012 74.0386 35.2323C74.3061 34.9635 74.6239 34.7563 74.9878 34.5998C75.3495 34.4433 75.7375 34.375 76.1518 34.375C76.5486 34.375 76.9278 34.4433 77.2808 34.5998C77.6337 34.7563 77.945 34.9635 78.2124 35.2323C78.4799 35.5012 78.6859 35.812 78.8416 36.1778C78.9884 36.5327 79.0651 36.914 79.0651 37.3217H79.0388V46.1287H82.9715V37.3217C82.9715 36.3674 82.7983 35.4748 82.4366 34.6351C82.0815 33.7976 81.5905 33.0703 80.9789 32.4355ZM130.475 9.96185C130.898 10.958 131.108 12.0776 131.108 13.3075C131.108 14.4601 130.898 15.5268 130.475 16.523C130.06 17.5104 129.49 18.3699 128.769 19.0972C128.048 19.8245 127.204 20.3887 126.237 20.8141C125.271 21.2307 124.231 21.4378 123.124 21.4378C122.026 21.4378 120.987 21.2307 120.02 20.8141C119.054 20.3887 118.201 19.8267 117.48 19.0972C116.759 18.3699 116.186 17.5104 115.766 16.523C115.342 15.5268 115.141 14.4601 115.141 13.3075C115.141 12.1372 115.342 11.0528 115.766 10.0566C116.189 9.05162 116.759 8.19208 117.48 7.47359C118.201 6.74629 119.054 6.17326 120.02 5.76553C120.987 5.34899 122.026 5.14182 123.124 5.14182C124.231 5.14182 125.271 5.34017 126.237 5.73027C127.204 6.11155 128.048 6.66695 128.769 7.38544C129.49 8.09952 130.062 8.95685 130.475 9.96185ZM127.09 13.3097C127.09 12.6771 126.985 12.1041 126.783 11.584C126.573 11.0726 126.281 10.6297 125.922 10.266C125.562 9.89353 125.148 9.60702 124.663 9.41748C124.179 9.21912 123.67 9.12215 123.124 9.12215C122.579 9.12215 122.061 9.21692 121.586 9.41748C121.101 9.60922 120.68 9.89353 120.327 10.266C119.968 10.6297 119.694 11.0726 119.483 11.584C119.282 12.1041 119.176 12.6771 119.176 13.3097C119.176 13.8981 119.282 14.4535 119.483 14.9648C119.694 15.4673 119.968 15.9103 120.327 16.2828C120.678 16.6641 121.101 16.9594 121.586 17.1666C122.061 17.3826 122.579 17.495 123.124 17.495C123.67 17.495 124.179 17.3914 124.663 17.1908C125.148 16.9925 125.56 16.7059 125.922 16.3423C126.281 15.9786 126.573 15.5356 126.783 15.0155C126.985 14.4954 127.09 13.9334 127.09 13.3097ZM152.652 10.3784C153.003 9.97949 153.426 9.66873 153.902 9.45054C154.386 9.22574 154.895 9.12215 155.441 9.12215C155.837 9.12215 156.214 9.17504 156.583 9.29626C156.951 9.40866 157.295 9.57396 157.611 9.79876C157.926 10.0147 158.209 10.2836 158.464 10.6054C158.718 10.936 158.922 11.2908 159.062 11.6986L161.982 8.80258C161.631 8.22073 161.217 7.7006 160.732 7.251C160.248 6.79919 159.731 6.4179 159.158 6.10715C158.586 5.79418 157.99 5.55175 157.365 5.39527C156.732 5.22997 156.098 5.14402 155.441 5.14402C154.342 5.14402 153.312 5.36882 152.345 5.81182C151.379 6.25481 150.526 6.85208 149.805 7.61465C149.075 8.37721 148.503 9.26981 148.09 10.3013C147.667 11.3239 147.457 12.4259 147.457 13.6116C147.457 14.6959 147.667 15.7098 148.09 16.6619C148.505 17.6074 149.075 18.4382 149.805 19.1501C150.526 19.8598 151.379 20.4152 152.345 20.8229C153.312 21.2307 154.342 21.4378 155.441 21.4378C156.1 21.4378 156.734 21.3607 157.348 21.213C157.964 21.0654 158.553 20.8494 159.115 20.554C159.678 20.2675 160.195 19.9215 160.68 19.505C161.155 19.0972 161.585 18.63 161.956 18.1099L159.036 15.2139C158.878 15.5599 158.676 15.8817 158.428 16.1594C158.183 16.4459 157.9 16.6883 157.584 16.8779C157.269 17.0762 156.925 17.2239 156.565 17.3363C156.206 17.4399 155.835 17.4928 155.441 17.4928C154.895 17.4928 154.386 17.3892 153.902 17.1886C153.426 16.9903 153.005 16.7126 152.652 16.3555C152.293 16.0007 152.01 15.5841 151.808 15.1169C151.607 14.6497 151.501 14.1472 151.501 13.6094C151.501 12.9416 151.607 12.3355 151.808 11.7889C152.01 11.2446 152.29 10.7773 152.652 10.3784ZM51.6287 13.4882C51.3788 12.5779 51.2494 11.6413 51.2494 10.6627C51.2494 9.68416 51.3788 8.73866 51.6287 7.82843C51.8873 6.9182 52.2403 6.06968 52.7072 5.28066C53.1719 4.49165 53.7243 3.77316 54.371 3.123C55.0264 2.47283 55.7411 1.90862 56.5258 1.4502C57.3106 0.991778 58.1546 0.634738 59.0599 0.383487C59.9675 0.121217 60.8991 0 61.8724 0C62.8457 0 63.7861 0.121217 64.6915 0.381283C65.5968 0.632534 66.4408 0.98737 67.2255 1.448C68.0103 1.90642 68.7249 2.47063 69.3716 3.12079C70.0183 3.77096 70.5795 4.48945 71.0354 5.27846C71.4914 6.06747 71.8465 6.916 72.0964 7.82623C72.3551 8.73646 72.4757 9.68195 72.4757 10.6605C72.4757 11.6391 72.3551 12.5757 72.0964 13.486C71.8465 14.3962 71.4936 15.2447 71.0354 16.0337C70.5795 16.8228 70.0183 17.5501 69.3716 18.2002C68.7249 18.8504 68.0103 19.4146 67.2255 19.873C66.4408 20.3403 65.5968 20.6973 64.6915 20.9574C63.7861 21.2086 62.8457 21.3386 61.8724 21.3386C60.8991 21.3386 59.9675 21.2086 59.0621 20.9574C58.1568 20.6973 57.3128 20.3425 56.528 19.873C55.7433 19.4146 55.0286 18.8504 54.3732 18.2002C53.7265 17.5501 53.1741 16.8228 52.7094 16.0337C52.2424 15.2469 51.8873 14.3984 51.6287 13.4882ZM55.3377 10.6627C55.3377 11.5641 55.5021 12.4149 55.8463 13.2017C56.1904 13.9907 56.6574 14.6849 57.2514 15.2822C57.8455 15.8706 58.536 16.3489 59.3295 16.6861C60.1231 17.0321 60.9671 17.2062 61.8724 17.2062C62.769 17.2062 63.6129 17.0321 64.4153 16.6861C65.2088 16.3489 65.9059 15.8706 66.4934 15.2822C67.0787 14.6849 67.5456 13.9907 67.881 13.2017C68.2251 12.4126 68.3983 11.5641 68.3983 10.6627C68.3983 9.7613 68.2251 8.91277 67.881 8.10613C67.5456 7.3083 67.0787 6.61626 66.4934 6.01678C65.9081 5.42833 65.2088 4.95889 64.4153 4.62168C63.6129 4.27566 62.769 4.10155 61.8724 4.10155C60.9671 4.10155 60.1231 4.27566 59.3295 4.62168C58.536 4.95889 57.8455 5.42833 57.2514 6.01678C56.6574 6.61405 56.1904 7.3083 55.8463 8.10613C55.4999 8.91057 55.3377 9.7613 55.3377 10.6627ZM176.454 9.65991C176.086 8.82021 175.593 8.08189 174.959 7.45817C174.334 6.82563 173.596 6.33195 172.752 5.97491C171.899 5.61126 170.994 5.43715 170.036 5.43715C169.507 5.43715 168.99 5.50547 168.488 5.65313C167.977 5.80961 167.486 6.06086 167.011 6.40688V0.628126H163.027V21.1447H167.011V12.3377C167.011 11.9388 167.089 11.5575 167.247 11.1939C167.396 10.839 167.616 10.5261 167.89 10.2572C168.161 9.9883 168.479 9.77231 168.848 9.62465C169.216 9.46817 169.613 9.39103 170.036 9.39103C170.441 9.39103 170.827 9.46817 171.187 9.62465C171.546 9.77231 171.864 9.9883 172.136 10.2572C172.408 10.5261 172.62 10.8368 172.778 11.1939C172.936 11.5575 173.015 11.9388 173.015 12.3377H172.98V21.1447H176.998V12.3377C177 11.3922 176.816 10.4996 176.454 9.65991ZM116.318 34.9591C116.723 35.9552 116.93 37.0748 116.93 38.287C116.93 39.5521 116.723 40.6959 116.318 41.7031C115.904 42.717 115.345 43.5765 114.637 44.2862C113.922 44.9892 113.093 45.5248 112.144 45.8995C111.186 46.2807 110.178 46.4637 109.101 46.4637C108.757 46.4637 108.411 46.4284 108.076 46.3513C107.74 46.2741 107.403 46.1683 107.076 46.0383C106.749 45.9083 106.421 45.7606 106.103 45.5953C105.783 45.4388 105.474 45.2669 105.18 45.0928V52.0022H101.241C101.241 47.7684 101.241 39.3008 101.241 39.3008C101.241 39.3008 100.701 31.4239 107.628 30.3484C108.122 30.2713 108.602 30.1567 109.104 30.1567C110.182 30.1567 111.191 30.3484 112.146 30.7385C113.096 31.1286 113.922 31.684 114.639 32.3848C115.342 33.0945 115.904 33.9541 116.318 34.9591ZM113.008 38.287C113.008 37.6369 112.905 37.0484 112.697 36.5371C112.499 36.017 112.214 35.574 111.859 35.2191C111.506 34.8555 111.092 34.5778 110.618 34.386C110.136 34.1943 109.636 34.0995 109.101 34.0995C108.567 34.0995 108.058 34.1943 107.593 34.386C107.12 34.5778 106.706 34.8533 106.353 35.2191C106 35.574 105.723 36.017 105.515 36.5371C105.309 37.0484 105.204 37.6369 105.204 38.287C105.204 38.9107 105.307 39.4838 105.515 40.0039C105.721 40.5152 105.997 40.9582 106.353 41.3219C106.706 41.6855 107.12 41.972 107.593 42.1704C108.058 42.3776 108.567 42.4745 109.101 42.4745C109.636 42.4745 110.136 42.3798 110.618 42.1704C111.092 41.9698 111.506 41.6855 111.859 41.3219C112.212 40.9582 112.497 40.5152 112.697 40.0039C112.903 39.4838 113.008 38.9107 113.008 38.287ZM146.929 33.4846L139.6 42.3621C139.756 42.415 139.912 42.4393 140.056 42.4569C140.212 42.4657 140.368 42.4745 140.521 42.4745C140.9 42.4745 141.262 42.4216 141.617 42.318C141.97 42.2145 142.308 42.058 142.617 41.8662C142.928 41.6679 143.202 41.4232 143.445 41.1477C143.686 40.8612 143.886 40.5505 144.039 40.2023L146.902 43.0982C146.541 43.6096 146.118 44.0768 145.653 44.4933C145.179 44.9011 144.671 45.2559 144.118 45.5424C143.566 45.8289 142.989 46.0449 142.384 46.1926C141.782 46.3491 141.159 46.4174 140.521 46.4174C139.434 46.4174 138.425 46.219 137.478 45.8113C136.529 45.4124 135.694 44.8482 134.986 44.1297C134.271 43.4112 133.71 42.5517 133.305 41.5643C132.89 40.5681 132.684 39.475 132.684 38.287C132.684 37.0726 132.89 35.9552 133.305 34.9502C133.71 33.9452 134.271 33.0857 134.986 32.376C135.694 31.6642 136.529 31.111 137.478 30.7209C138.428 30.3219 139.436 30.1324 140.521 30.1324C141.159 30.1324 141.779 30.2095 142.391 30.3572C143.003 30.5137 143.581 30.7385 144.134 31.025C144.677 31.3115 145.195 31.6664 145.668 32.0829C146.153 32.4972 146.565 32.9645 146.929 33.4846ZM141.608 34.256C141.426 34.1943 141.247 34.1524 141.065 34.126C140.892 34.1083 140.712 34.0995 140.521 34.0995C139.986 34.0995 139.478 34.1943 139.004 34.3948C138.539 34.5932 138.125 34.8709 137.781 35.2368C137.428 35.6004 137.152 36.0434 136.952 36.5547C136.755 37.066 136.65 37.6479 136.65 38.2892C136.65 38.4369 136.659 38.6022 136.676 38.7829C136.685 38.9658 136.711 39.1466 136.744 39.3295C136.779 39.5212 136.821 39.702 136.865 39.8761C136.917 40.0502 136.976 40.1978 137.055 40.3345L141.608 34.256ZM132.088 33.4846L124.76 42.3621C124.915 42.415 125.062 42.4393 125.216 42.4569C125.371 42.4657 125.518 42.4745 125.672 42.4745C126.051 42.4745 126.421 42.4216 126.774 42.318C127.127 42.2145 127.456 42.058 127.765 41.8662C128.076 41.6679 128.35 41.4232 128.603 41.1477C128.844 40.8612 129.043 40.5505 129.197 40.2023L132.059 43.0982C131.689 43.6096 131.275 44.0768 130.801 44.4933C130.328 44.9011 129.819 45.2559 129.275 45.5424C128.723 45.8289 128.147 46.0449 127.542 46.1926C126.93 46.3491 126.31 46.4174 125.672 46.4174C124.593 46.4174 123.576 46.219 122.629 45.8113C121.68 45.4124 120.853 44.8482 120.137 44.1297C119.429 43.4112 118.87 42.5517 118.455 41.5643C118.05 40.5681 117.844 39.475 117.844 38.287C117.844 37.0726 118.05 35.9552 118.455 34.9502C118.87 33.9452 119.429 33.0857 120.137 32.376C120.851 31.6642 121.68 31.111 122.629 30.7209C123.578 30.3219 124.595 30.1324 125.672 30.1324C126.31 30.1324 126.939 30.2095 127.55 30.3572C128.153 30.5137 128.741 30.7385 129.284 31.025C129.837 31.3115 130.345 31.6664 130.828 32.0829C131.303 32.4972 131.726 32.9645 132.088 33.4846ZM126.759 34.256C126.577 34.1943 126.397 34.1524 126.224 34.126C126.051 34.1083 125.862 34.0995 125.672 34.0995C125.137 34.0995 124.637 34.1943 124.163 34.3948C123.69 34.5932 123.284 34.8709 122.932 35.2368C122.587 35.6004 122.311 36.0434 122.112 36.5547C121.906 37.066 121.809 37.6479 121.809 38.2892C121.809 38.4369 121.818 38.6022 121.827 38.7829C121.844 38.9658 121.871 39.1466 121.903 39.3295C121.938 39.5212 121.971 39.702 122.024 39.8761C122.068 40.0502 122.127 40.1978 122.206 40.3345L126.759 34.256ZM142.13 14.5351C142.13 14.934 142.062 15.3152 141.906 15.6789C141.751 16.0337 141.545 16.3555 141.277 16.6244C141.01 16.8845 140.692 17.1005 140.328 17.2569C139.966 17.4046 139.578 17.4817 139.173 17.4817C138.767 17.4817 138.397 17.4046 138.044 17.2569C137.691 17.1005 137.38 16.8845 137.112 16.6244C136.845 16.3555 136.63 16.0359 136.483 15.6789C136.328 15.3152 136.251 14.934 136.251 14.5351V5.72807H132.344V14.5351C132.344 15.4805 132.526 16.382 132.879 17.2129C133.241 18.0526 133.723 18.7909 134.346 19.4146C134.966 20.0471 135.692 20.5408 136.527 20.8979C137.356 21.2615 138.235 21.4444 139.173 21.4444C140.034 21.4444 140.872 21.288 141.665 20.9772C142.468 20.6642 143.182 20.2234 143.811 19.6416C144.237 19.2603 144.901 18.5727 145.398 17.5236C145.966 16.3269 146.045 15.2403 146.045 14.6452V5.72807H142.13V14.5351ZM151.065 42.2497C149.678 42.2497 148.555 43.3759 148.555 44.7644C148.555 46.1595 149.675 47.288 151.065 47.288C152.444 47.288 153.566 46.1617 153.566 44.7644C153.566 43.3759 152.446 42.2497 151.065 42.2497ZM101.62 19.2537C101.146 19.6703 100.638 20.0163 100.085 20.3028C99.5417 20.5893 98.9651 20.8141 98.3514 20.9618C97.7485 21.1094 97.126 21.1778 96.4881 21.1778C95.4095 21.1778 94.3924 20.9794 93.4454 20.5805C92.4962 20.1728 91.661 19.6107 90.953 18.8901C90.2449 18.1716 89.6859 17.3208 89.2716 16.3247C88.8573 15.3373 88.66 14.2441 88.66 13.0474C88.66 11.833 88.8573 10.7156 89.2716 9.7106C89.6859 8.7056 90.2449 7.84606 90.953 7.13639C91.661 6.42451 92.4962 5.88014 93.4454 5.48122C94.3946 5.09113 95.4117 4.89277 96.4881 4.89277C97.126 4.89277 97.7463 4.96991 98.3579 5.12639C98.9695 5.27405 99.5483 5.49886 100.101 5.78537C100.644 6.07188 101.162 6.42672 101.635 6.84327C102.117 7.25981 102.532 7.72705 102.893 8.24718L95.5652 17.1247C95.7208 17.1776 95.8765 17.2018 96.0299 17.2195C96.1768 17.2371 96.3324 17.2459 96.4859 17.2459C96.8651 17.2459 97.2356 17.1842 97.5885 17.0806C97.9327 16.977 98.2703 16.8294 98.5793 16.6288C98.8906 16.4304 99.1646 16.1946 99.408 15.9103C99.6491 15.6238 99.8486 15.313 100.002 14.9648L102.865 17.8608C102.508 18.3765 102.093 18.8372 101.62 19.2537ZM97.5753 9.02297C97.3934 8.95465 97.2137 8.91057 97.0405 8.89294C96.8585 8.86649 96.6788 8.85768 96.4881 8.85768C95.9532 8.85768 95.4446 8.96126 94.9799 9.153C94.5064 9.35136 94.0921 9.62906 93.7479 9.99271C93.395 10.3652 93.1276 10.7994 92.9193 11.3107C92.722 11.8308 92.6168 12.4038 92.6168 13.0452C92.6168 13.1928 92.6256 13.3581 92.6431 13.5389C92.6606 13.7218 92.6782 13.9025 92.7111 14.0943C92.7461 14.2772 92.7878 14.4579 92.8316 14.632C92.8842 14.8061 92.9434 14.9604 93.0223 15.0904L97.5753 9.02297ZM99.3597 34.9414C99.774 35.9464 99.9801 37.0572 99.9801 38.287C99.9801 39.4397 99.774 40.5152 99.3597 41.5026C98.9542 42.4988 98.393 43.3583 97.6871 44.0768C96.9791 44.8041 96.1527 45.3771 95.2035 45.7937C94.2543 46.2102 93.2372 46.4174 92.1521 46.4174C91.0735 46.4174 90.0564 46.2102 89.1094 45.7937C88.1602 45.3771 87.325 44.8063 86.617 44.0768C85.9089 43.3583 85.3412 42.4988 84.9356 41.5026C84.5213 40.5152 84.324 39.4397 84.324 38.287C84.324 37.1167 84.5213 36.0324 84.9356 35.0362C85.3412 34.04 85.9089 33.1717 86.617 32.4532C87.325 31.7259 88.1602 31.1617 89.1094 30.7451C90.0586 30.3374 91.0757 30.1302 92.1521 30.1302C93.2393 30.1302 94.2565 30.3219 95.2035 30.712C96.1527 31.1021 96.9791 31.6487 97.6871 32.3672C98.3952 33.0769 98.9542 33.9364 99.3597 34.9414ZM96.0409 38.287C96.0409 37.6545 95.9378 37.0815 95.7384 36.5701C95.5323 36.05 95.2473 35.6158 94.8944 35.2434C94.5415 34.8709 94.1359 34.5932 93.6624 34.3948C93.1889 34.1965 92.6891 34.0995 92.1543 34.0995C91.6194 34.0995 91.1108 34.1943 90.6461 34.3948C90.1726 34.5932 89.7583 34.8709 89.4141 35.2434C89.0612 35.6158 88.7937 36.05 88.5855 36.5701C88.3882 37.0815 88.283 37.6545 88.283 38.287C88.283 38.8843 88.386 39.4309 88.5855 39.9422C88.7915 40.4535 89.059 40.8965 89.4141 41.269C89.7583 41.6414 90.1726 41.9368 90.6461 42.1527C91.1108 42.3687 91.6194 42.4723 92.1543 42.4723C92.6891 42.4723 93.1889 42.3776 93.6624 42.1682C94.1359 41.9676 94.5415 41.6833 94.8944 41.3197C95.2473 40.956 95.5323 40.513 95.7384 40.0017C95.9378 39.4838 96.0409 38.9107 96.0409 38.287ZM12.0961 0C5.41452 0 0 5.44816 0 12.1658V20.4681H11.502C19.3564 20.4681 25.7266 26.8706 25.7266 34.7607V46.2918H33.9843C40.6659 46.2918 46.0826 40.848 46.0826 34.1282V0H12.0961ZM37.8052 34.1304C37.8052 36.2396 36.0953 37.9719 33.9843 37.9785V34.7629C33.9843 22.2996 23.8984 12.1548 11.502 12.1548H8.26208C8.27084 10.0368 9.98069 8.3133 12.0873 8.3133H37.8052V34.1304Z" fill="url(#paint0_linear_1_1095)"/>
<defs>
<linearGradient id="paint0_linear_1_1095" x1="0" y1="26.0005" x2="177" y2="26.0005" gradientUnits="userSpaceOnUse">
<stop stop-color="#AE278B"/>
<stop offset="1" stop-color="#3FC6EF"/>
</linearGradient>
</defs>
</svg>
