<svg width="20" height="21" viewBox="0 0 20 21" fill="none" xmlns="http://www.w3.org/2000/svg">
<path d="M11.8502 18.8739C11.4459 18.9299 11.0408 18.9763 10.6349 19.0202C10.3205 19.0543 10.0966 19.3152 10.1159 19.6338C10.1327 19.9134 10.3092 20.0605 10.5386 20.1653C10.7151 20.1653 10.8908 20.1653 11.0673 20.1653C11.3946 20.1133 11.7227 20.0662 12.0491 20.0085C12.3869 19.9483 12.5922 19.6549 12.5345 19.3298C12.4791 19.0234 12.1767 18.8284 11.8502 18.8739Z" fill="white"/>
<path d="M19.4572 9.12726C18.9879 6.31431 17.4847 4.14668 15.0605 2.67641C13.1714 1.53042 11.1218 1.12973 8.93911 1.45889C8.65033 1.50278 8.36476 1.56374 8.05432 1.62063C8.09763 1.55074 8.12892 1.5036 8.15619 1.45483C8.3062 1.18906 8.23962 0.859079 8.00218 0.689213C7.7543 0.512032 7.41338 0.555108 7.22647 0.808688C6.81255 1.36949 6.40264 1.93436 6.00316 2.50573C5.76973 2.83977 5.91332 3.27378 6.30237 3.37782C6.99304 3.56312 7.68853 3.7338 8.38802 3.88498C8.7843 3.97113 9.1196 3.54687 8.99767 3.15349C8.92468 2.91698 8.74579 2.80563 8.47786 2.72029C9.4517 2.48297 10.3084 2.43502 11.344 2.5675C13.0462 2.78531 14.5503 3.47128 15.8041 4.65141C17.7911 6.52156 18.6647 8.85174 18.4296 11.5891C18.2852 13.265 17.6427 14.7467 16.5911 16.0446C15.8587 16.9492 14.9658 17.6523 13.9302 18.1692C13.7586 18.2545 13.6182 18.3651 13.5644 18.5553C13.4979 18.7909 13.5532 19.0006 13.7385 19.1591C13.931 19.3241 14.1508 19.3371 14.3738 19.2282C15.1295 18.8568 15.8378 18.4057 16.4555 17.8278C18.9751 15.4684 20.0292 12.5563 19.4572 9.12726Z" fill="white"/>
<path d="M7.33637 9.4239C7.33637 9.7555 7.32996 10.0603 7.33798 10.3651C7.3468 10.6877 7.60029 10.9397 7.9011 10.9438C8.20834 10.9478 8.45059 10.7056 8.46824 10.3748C8.47466 10.248 8.47466 10.1204 8.47546 9.99283C8.47626 9.80508 8.47546 9.61815 8.47546 9.4369C8.90222 9.38976 9.12763 9.18088 9.13485 8.8631C9.14207 8.54775 8.92548 8.33805 8.49391 8.25353C8.49391 8.18769 8.49391 8.11861 8.49391 8.05034C8.49311 7.25465 8.49953 6.45815 8.4899 5.66246C8.48268 5.07077 8.11047 4.65626 7.61553 4.67089C7.26257 4.68146 7.01069 4.87733 6.83341 5.16505C6.5342 5.65027 6.24542 6.1428 5.96466 6.63858C5.60528 7.27253 5.25393 7.91136 4.90579 8.55181C4.71888 8.89561 4.85846 9.28004 5.2058 9.3922C5.29885 9.42227 5.40314 9.42227 5.50261 9.42309C6.10584 9.42471 6.70827 9.4239 7.33637 9.4239ZM7.3468 6.4996C7.3468 7.12379 7.3468 7.69435 7.3468 8.2706C7.00427 8.2706 6.69865 8.2706 6.35371 8.2706C6.68421 7.68135 7.00347 7.11242 7.3468 6.4996Z" fill="white"/>
<path d="M3.97526 11.0242C4.03061 11.0242 4.08837 11.0177 4.14131 11.0006C4.41726 10.9145 4.57368 10.6585 4.53518 10.3642C4.49988 10.096 4.26886 9.88553 3.98569 9.88227C3.49556 9.87659 3.00543 9.88065 2.46718 9.88065C2.60996 9.68152 2.7351 9.51653 2.84981 9.34585C3.24288 8.76311 3.64557 8.18605 4.01778 7.58949C4.21993 7.2652 4.33865 6.89377 4.32822 6.50283C4.30175 5.48526 3.50599 4.69444 2.49926 4.66925C1.63933 4.6473 0.858016 5.25525 0.659076 6.10051C0.550783 6.55972 0.866037 6.93196 1.30402 6.85394C1.5535 6.81005 1.68827 6.641 1.75645 6.3988C1.86875 6.00217 2.15032 5.79736 2.53376 5.8193C2.96533 5.8445 3.30144 6.2842 3.15384 6.69464C3.03752 7.01812 2.86746 7.33184 2.67173 7.61468C2.11984 8.412 1.54227 9.19143 0.975935 9.97818C0.818709 10.1968 0.740898 10.4293 0.875663 10.6902C1.00882 10.947 1.23263 11.0266 1.50457 11.025C2.3276 11.0226 3.15143 11.025 3.97526 11.0242Z" fill="white"/>
<path d="M15.6445 11.4282C15.8145 11.0283 15.5891 10.6113 15.1848 10.6056C14.2294 10.5926 13.2732 10.5975 12.3179 10.6032C12.0756 10.6048 11.8951 10.7633 11.8189 10.999C11.7459 11.2258 11.8053 11.4753 12.0082 11.6078C12.1277 11.6858 12.285 11.7378 12.4261 11.7411C13.0286 11.7557 13.6318 11.7468 14.2695 11.7468C13.992 12.388 13.7313 12.9919 13.469 13.5958C13.116 14.4102 12.7591 15.2229 12.4093 16.0389C12.2537 16.4022 12.435 16.7712 12.8008 16.859C13.0711 16.924 13.3302 16.7696 13.4666 16.4559C13.9142 15.4269 14.3594 14.3963 14.8062 13.3666C15.0862 12.7204 15.3693 12.0759 15.6445 11.4282Z" fill="white"/>
<path d="M11.8574 7.99591C11.8598 7.66511 11.6704 7.43104 11.3969 7.37171C11.1474 7.31807 10.8803 7.4603 10.7712 7.72038C10.6557 7.99509 10.5514 8.27387 10.4423 8.55102C9.88882 9.96034 9.33532 11.3705 8.78022 12.7798C8.69599 12.9936 8.68476 13.2024 8.82193 13.3967C8.95429 13.5844 9.14119 13.6592 9.3658 13.6267C9.60164 13.5926 9.74042 13.4454 9.82545 13.2276C10.4824 11.5517 11.1418 9.87663 11.7988 8.20072C11.8309 8.11944 11.8469 8.03167 11.8574 7.99591Z" fill="white"/>
<path d="M8.18422 18.7389C7.81041 18.6122 7.44141 18.4724 7.07 18.3415C6.9938 18.3147 6.91358 18.3009 6.8839 18.2927C6.57105 18.2927 6.33441 18.478 6.27986 18.7243C6.21729 19.0063 6.34644 19.2851 6.62159 19.3924C7.03551 19.5541 7.45425 19.7069 7.87699 19.8427C8.22112 19.9524 8.52755 19.7768 8.61579 19.4493C8.70082 19.1315 8.52675 18.8552 8.18422 18.7389Z" fill="white"/>
<path d="M2.42464 12.8456C2.31795 12.5246 2.0396 12.3555 1.74119 12.4352C1.42834 12.5189 1.24063 12.8123 1.33689 13.1423C1.46925 13.5974 1.62728 14.0461 1.79493 14.489C1.87756 14.7076 2.06527 14.8149 2.24094 14.8174C2.7054 14.8198 2.96611 14.4297 2.82974 14.0314C2.69337 13.6364 2.557 13.2414 2.42464 12.8456Z" fill="white"/>
<path d="M4.06669 16.0837C3.85411 15.8764 3.52763 15.8805 3.31184 16.0739C3.10248 16.2609 3.03429 16.6038 3.2212 16.8143C3.56373 17.202 3.93192 17.5686 4.30975 17.9221C4.46697 18.0692 4.68276 18.0579 4.87769 17.9522C5.07181 17.8465 5.16487 17.6759 5.18412 17.3833C5.14962 17.3109 5.11353 17.1598 5.02208 17.0598C4.71404 16.7249 4.39237 16.4023 4.06669 16.0837Z" fill="white"/>
</svg>
