<svg width="40" height="54" viewBox="0 0 40 54" fill="none" xmlns="http://www.w3.org/2000/svg">
<path d="M19.9835 2.09839C20.4932 2.10897 20.8496 1.8432 21.005 1.36037C21.1636 0.869067 20.9839 0.474118 20.5767 0.175524C20.4943 0.11517 20.4097 0.0579923 20.3261 -0.000244141C20.1157 -0.000244141 19.9053 -0.000244141 19.6938 -0.000244141C19.6102 0.0579923 19.5256 0.11517 19.4432 0.175524C19.035 0.474118 18.8573 0.869067 19.0138 1.36037C19.1598 1.82097 19.4982 2.0878 19.9835 2.09839Z" fill="black"/>
<path d="M33.6648 35.3206C33.4818 35.0009 33.5019 34.8315 33.7663 34.571C38.621 29.7956 40.6513 24.0154 39.817 17.2515C38.8536 9.43402 32.8484 2.65001 25.1883 0.679496C24.4417 0.487846 23.8591 0.755733 23.7047 1.36245C23.5429 1.99458 23.8866 2.51977 24.6257 2.7146C33.5706 5.06629 39.2735 14.004 37.6291 23.2879C35.8822 33.149 25.9169 39.8038 16.1323 37.5432C4.78698 34.9215 -1.15587 22.677 3.9019 12.2262C6.25683 7.35975 10.1218 4.21921 15.3191 2.73471C16.1334 2.50177 16.495 1.98611 16.3068 1.33386C16.1291 0.718674 15.5486 0.470904 14.7545 0.710203C14.0174 0.93256 13.274 1.15174 12.5613 1.44081C-0.956011 6.92138 -4.32292 24.4135 6.19867 34.5149C6.51696 34.8209 6.53176 35.021 6.31922 35.3926C4.3217 38.8805 2.34851 42.3831 0.360509 45.8763C0.0982627 46.3379 -0.0328605 46.7879 0.321384 47.2475C0.652364 47.6774 1.08909 47.7208 1.59878 47.6064C2.81273 47.3332 4.03408 47.0939 5.25225 46.843C6.34777 46.6175 7.44328 46.393 8.55889 46.1643C8.63714 46.3665 8.7027 46.5253 8.7598 46.6873C9.5053 48.787 10.255 50.8846 10.991 52.9875C11.1697 53.4978 11.4034 53.9362 12.0019 53.9923C12.6026 54.0495 12.9113 53.6619 13.1778 53.1897C15.2007 49.615 17.2321 46.0457 19.2613 42.4742C19.4929 42.0665 19.7276 41.6599 20.0079 41.1729C20.1591 41.4323 20.2574 41.5975 20.3526 41.7648C22.5288 45.5957 24.7071 49.4255 26.8791 53.2585C27.1297 53.7011 27.4428 54.0368 27.9895 53.9934C28.5562 53.9489 28.8217 53.5656 28.9972 53.0595C29.748 50.9058 30.5263 48.7627 31.2718 46.6069C31.3944 46.2532 31.5319 46.1579 31.9094 46.2394C34.1015 46.7149 36.301 47.1628 38.4973 47.6181C39.2333 47.7705 39.8635 47.4021 39.8921 46.7413C39.9047 46.4491 39.781 46.1209 39.633 45.8572C37.6556 42.3397 35.6676 38.8265 33.6648 35.3206ZM12.3414 50.3933C12.243 50.1529 12.1732 50.0005 12.1172 49.8416C11.5176 48.156 10.9233 46.4692 10.3216 44.7846C10.0414 43.9989 9.64382 43.7829 8.8243 43.9534C7.14297 44.3028 5.46268 44.6544 3.78029 45.0017C3.63013 45.0324 3.47363 45.0387 3.24416 45.0663C4.92762 42.0951 6.57723 39.1854 8.23954 36.2514C11.2374 38.3945 14.5313 39.628 18.2387 40.005C16.2751 43.4674 14.3325 46.8875 12.3414 50.3933ZM33.246 44.3759C32.5428 44.2308 31.8396 44.0836 31.1354 43.9386C30.3962 43.7861 29.97 44.0191 29.7099 44.7422C29.0765 46.5084 28.4526 48.2777 27.8245 50.046C27.7959 50.1254 27.7621 50.2016 27.6828 50.3997C25.6916 46.8938 23.7533 43.4822 21.7801 40.0071C25.4748 39.6386 28.7804 38.4008 31.7804 36.2524C33.4448 39.1897 35.0923 42.0973 36.7959 45.1033C35.5375 44.846 34.3912 44.6109 33.246 44.3759Z" fill="black"/>
<path d="M4.2096 20.0543C4.21806 28.7749 11.3304 35.8776 20.0374 35.8607C28.7286 35.8437 35.8029 28.7527 35.8093 20.0511C35.8167 11.3283 28.7201 4.21818 20.0089 4.21924C11.2977 4.21924 4.20114 11.3326 4.2096 20.0543ZM33.7039 20.0892C33.6764 27.6282 27.5284 33.7578 19.9994 33.7515C12.4513 33.7462 6.3044 27.5742 6.31603 20.0151C6.32767 12.456 12.4947 6.30834 20.047 6.3274C27.5971 6.34646 33.7314 12.528 33.7039 20.0892Z" fill="black"/>
<path d="M10.0023 17.0842C9.82993 17.6083 10.0753 17.9874 10.4401 18.3432C11.6466 19.5206 12.8362 20.716 14.0449 21.8913C14.2723 22.1126 14.3283 22.3159 14.2723 22.6315C13.9603 24.3945 13.679 26.1627 13.3872 27.9289C13.3364 28.8194 14.1834 29.3287 15.0315 28.8967C16.5627 28.1174 18.0875 27.3264 19.6039 26.5185C19.9042 26.3586 20.1326 26.3629 20.4287 26.5196C21.9461 27.3264 23.4752 28.1099 24.9969 28.9062C25.4251 29.1307 25.8428 29.1487 26.2288 28.8427C26.5926 28.5536 26.6814 28.1639 26.6031 27.7076C26.3081 25.9954 26.0152 24.2822 25.7572 22.5637C25.7255 22.3551 25.8471 22.0534 26.0014 21.8977C27.1826 20.6949 28.3849 19.5132 29.5925 18.3358C29.9595 17.9779 30.1889 17.5903 30.0145 17.0715C29.8484 16.577 29.4529 16.4002 28.9644 16.3314C27.3159 16.0963 25.6705 15.8326 24.0208 15.6039C23.6497 15.5521 23.4424 15.3964 23.2796 15.0586C22.5531 13.5582 21.796 12.0737 21.0579 10.5797C20.8422 10.1424 20.5598 9.81417 20.03 9.80676C19.4759 9.79935 19.1841 10.1361 18.9589 10.5935C18.2229 12.0886 17.4647 13.5731 16.7372 15.0735C16.5828 15.3911 16.3871 15.5478 16.0392 15.5976C14.3907 15.8337 12.7464 16.1005 11.0967 16.3314C10.5849 16.4002 10.1736 16.5632 10.0023 17.0842ZM16.7128 17.6274C17.5525 17.5437 18.0875 17.2007 18.4312 16.4065C18.8859 15.3519 19.4453 14.3428 20.0089 13.2152C20.5672 14.328 21.1256 15.3191 21.5665 16.361C21.9208 17.1986 22.4791 17.5522 23.361 17.6337C24.4724 17.7375 25.5742 17.9556 26.674 18.124C25.8724 18.9573 25.1428 19.815 24.3074 20.5551C23.5979 21.183 23.4128 21.8448 23.6211 22.749C23.8675 23.8206 23.9965 24.9186 24.1932 26.1077C23.029 25.502 21.9461 24.9715 20.8961 24.3818C20.2785 24.0345 19.7403 24.0376 19.1228 24.3881C18.0759 24.9811 16.992 25.5084 15.8309 26.1119C16.053 24.7471 16.237 23.4817 16.4717 22.227C16.5743 21.6796 16.4252 21.2719 16.0414 20.9013C15.2578 20.1443 14.4859 19.3766 13.7108 18.6111C13.5765 18.4787 13.4506 18.3389 13.2624 18.1399C14.4658 17.9546 15.5845 17.7396 16.7128 17.6274Z" fill="black"/>
</svg>
