<svg width="22" height="24" viewBox="0 0 22 24" fill="none" xmlns="http://www.w3.org/2000/svg">
<path d="M20.5899 13.6362C20.1434 13.0754 19.8088 12.468 19.7197 11.7495C19.5825 10.6476 19.4454 9.54578 19.3349 8.44164C19.2091 7.1851 18.9325 5.97657 18.3671 4.83738C16.6511 1.38248 12.8739 -0.594146 9.14084 0.159471C5.53735 0.887181 3.23764 3.13736 2.30648 6.66847C1.94224 8.05073 1.86909 9.5153 1.71745 10.9479C1.60848 11.9727 1.35321 12.9047 0.677321 13.7208C0.0562918 14.4706 -0.122016 15.3705 0.0783898 16.3238C0.408335 17.8942 1.64506 18.8864 3.2544 18.8879C5.71642 18.8909 8.17844 18.8886 10.6405 18.8886C13.1215 18.8886 15.6026 18.8894 18.0837 18.8886C18.8274 18.8886 19.5101 18.6951 20.0969 18.2219C21.4982 17.0896 21.7215 15.0588 20.5899 13.6362ZM19.4286 16.0449C19.2587 16.6842 18.7481 17.0454 18.0159 17.0469C15.8579 17.0499 13.6999 17.0477 11.5419 17.0477C11.247 17.0477 10.9529 17.0477 10.658 17.0477C8.21502 17.0477 5.77205 17.0492 3.32832 17.0469C2.46878 17.0461 1.91557 16.5615 1.84851 15.7568C1.8127 15.3316 1.98948 14.9857 2.25237 14.6664C2.85054 13.941 3.24221 13.1089 3.39613 12.1861C3.53329 11.3631 3.59806 10.5288 3.69865 9.6997C3.85029 8.45002 3.89372 7.17901 4.43626 6.00629C5.50001 3.70963 7.25642 2.27707 9.77178 1.91207C12.9966 1.4442 16.1078 3.44369 17.0969 6.60217C17.3575 7.43504 17.4367 8.32734 17.564 9.19754C17.7156 10.2392 17.8025 11.2908 17.9671 12.3301C18.1065 13.2087 18.5111 13.9852 19.0773 14.6695C19.4141 15.0779 19.5665 15.5259 19.4286 16.0449Z" fill="black"/>
<path d="M14.6677 19.5546C14.1823 19.3504 13.6824 19.563 13.4546 20.0812C12.9181 21.3019 11.9496 21.9092 10.6535 21.9069C9.36949 21.9039 8.40709 21.3011 7.87369 20.0926C7.63899 19.5607 7.13303 19.3458 6.64154 19.5622C6.16681 19.771 5.9786 20.2869 6.18739 20.8066C6.90062 22.5782 8.66388 23.7411 10.6413 23.7441C12.6545 23.7479 14.4376 22.5782 15.1432 20.7921C15.3459 20.2801 15.1439 19.755 14.6677 19.5546Z" fill="black"/>
</svg>
