<svg width="68" height="51" viewBox="0 0 68 51" fill="none" xmlns="http://www.w3.org/2000/svg">
<path d="M41.2949 0C41.5074 0.106093 41.7149 0.22271 41.9326 0.318359C43.2549 0.898608 44.0025 1.90774 44.0068 3.34473C44.0277 9.916 44.02 16.4873 44.0078 23.0586C44.0069 23.4953 43.886 23.9324 43.8154 24.4082H44.2266C47.4934 24.4091 50.7604 24.4242 54.0264 24.4033C55.5901 24.3938 57.2101 25.8915 57.1543 27.5234C57.1142 28.7091 57.1475 29.8974 57.1475 31.084V31.5137C61.0391 31.0604 65.1475 33.2164 66.9238 37.2207C68.5118 40.8004 67.8531 45.4426 63.9189 48.6455C64.2647 48.6455 64.5134 48.6327 64.7607 48.6475C65.2823 48.6781 65.6247 49.061 65.623 49.5957C65.623 50.1255 65.2761 50.5084 64.7568 50.5449C64.5836 50.5571 64.4095 50.5586 64.2354 50.5586C48.5409 50.5595 32.8468 50.5595 17.1523 50.5586C16.9354 50.5586 16.716 50.5596 16.499 50.5439C16.0002 50.5072 15.6294 50.084 15.6396 49.5771C15.6501 49.0805 16.0089 48.6851 16.4932 48.6484C16.6953 48.6336 16.8995 48.6338 17.1025 48.6338H28.9404V26.2812H21.7314V28.9326C21.7314 30.2932 21.7387 31.6541 21.7256 33.0146C21.7238 33.2677 21.6836 33.5372 21.5869 33.7686C21.2584 34.5592 20.4929 34.7601 19.8291 34.2217C18.9406 33.5023 18.0746 32.7545 17.1982 32.0195C17.1338 31.9656 17.0663 31.9139 16.9844 31.8486C16.0854 32.6053 15.2048 33.3542 14.3154 34.0918C13.9644 34.3832 13.5795 34.617 13.0918 34.4658C12.5246 34.2892 12.2 33.8345 12.1982 33.1855C12.1913 31.0282 12.1952 28.8713 12.1943 26.7148V26.2725C12.0549 26.2603 11.9568 26.2451 11.8584 26.2451C9.98539 26.2442 8.11324 26.2395 6.24023 26.249C5.40128 26.2534 4.89641 26.752 4.85547 27.5811C4.84764 27.7402 4.84766 27.8995 4.84766 28.0586C4.84679 34.8039 4.84668 41.5486 4.84668 48.2939C4.8467 48.392 4.85838 48.4893 4.86621 48.6143C4.99584 48.6212 5.10739 48.6318 5.21875 48.6318C7.48386 48.6327 9.74856 48.6351 12.0137 48.6299C12.4763 48.6281 12.8708 48.7001 13.0859 49.1855C13.376 49.8388 12.9871 50.505 12.2676 50.5459C12.0499 50.558 11.8319 50.5576 11.6143 50.5576C6.432 50.5585 6.47533 50.5524 1.29297 50.5654C0.764214 50.5672 0.321462 50.4711 0 50.0293V49.1611C0.319729 48.7149 0.764152 48.6196 1.29297 48.623C1.79652 48.6274 2.03781 48.6301 2.13477 48.6318C2.27764 48.631 2.51094 48.6309 2.87598 48.6309V48.1123C2.87598 41.3095 2.88723 34.5049 2.86719 27.7021C2.86309 26.2 4.13239 24.7649 5.45996 24.5762C5.9154 24.511 6.37604 24.4383 6.83496 24.4365C9.75344 24.4243 12.6714 24.4307 15.5898 24.4307H15.9805C15.9212 23.6521 15.8152 22.8978 15.8135 22.1445C15.8004 15.9648 15.8058 9.78414 15.8066 3.60352C15.8066 2.17776 16.4078 1.1002 17.6797 0.419922C17.9646 0.267685 18.2639 0.139188 18.5566 0H41.2949ZM58.0361 33.4863C53.8458 33.3986 50.3967 36.7368 50.3818 41.0488C50.367 45.4026 53.8561 48.5566 57.8486 48.6855C62.1358 48.8239 65.7158 45.3499 65.7402 41.1064C65.7629 37.0787 62.4627 33.4515 58.0361 33.4863ZM48.4072 26.2451C48.253 26.2451 48.0984 26.2597 47.9268 26.2676V26.5273C47.9276 28.7126 47.9301 30.8987 47.9258 33.084C47.9258 33.283 47.9185 33.4952 47.8516 33.6777C47.5998 34.3615 46.6751 34.8679 45.8701 34.1729C44.9728 33.3969 44.0628 32.634 43.1289 31.8398C42.2212 32.6036 41.3508 33.3436 40.4727 34.0752C40.0982 34.3881 39.6951 34.6328 39.1719 34.4443C38.6065 34.2408 38.2773 33.7208 38.2764 33.0049C38.2738 30.9206 38.2754 28.8362 38.2754 26.752V26.2744H31.0918V48.6006H52.2129C49.2892 46.1344 47.9832 43.046 48.6602 39.3105C49.3389 35.5657 51.6786 33.1339 55.2129 31.8525C55.2129 30.5025 55.2188 29.2007 55.2109 27.8984C55.2048 26.8128 54.6271 26.245 53.5459 26.2441C51.8333 26.2433 50.1198 26.2434 48.4072 26.2451ZM14.4453 45.2578C14.8773 45.2579 15.1425 45.4855 15.1504 45.8447C15.16 46.2223 14.8884 46.4631 14.4336 46.4648C13.2611 46.4683 12.0875 46.4658 10.9141 46.4658C9.74148 46.4658 8.56798 46.4675 7.39453 46.4648C6.93737 46.464 6.68435 46.2582 6.68066 45.8975C6.67718 45.5425 6.98884 45.2587 7.40527 45.2578C9.7522 45.2552 12.0984 45.2552 14.4453 45.2578ZM40.4658 45.2568C40.9119 45.2568 41.2157 45.506 41.2148 45.8574C41.2155 46.2112 40.913 46.4638 40.4717 46.4648C39.3269 46.4675 38.1809 46.4658 37.0361 46.4658C35.8914 46.4658 34.7453 46.4675 33.6006 46.4648C33.1089 46.4638 32.8249 46.2285 32.8359 45.8418C32.8464 45.473 33.1183 45.2569 33.5947 45.2568C35.885 45.2551 38.1755 45.2551 40.4658 45.2568ZM61.252 37.7256C61.6074 37.3794 62.0195 37.1922 62.5117 37.3896C63.2485 37.6845 63.4186 38.6076 62.8311 39.2139C61.9546 40.1177 61.0524 40.9987 60.1611 41.8887C59.3623 42.6855 58.5622 43.4833 57.7607 44.2783C57.4899 44.547 57.2031 44.7903 56.7285 44.8242C56.4759 44.6808 56.1813 44.5805 55.9775 44.3857C55.1395 43.5864 54.3209 42.7667 53.5107 41.9395C52.9706 41.3879 52.9696 40.6871 53.4766 40.2617C53.8895 39.9164 54.4621 39.9374 54.8916 40.3428C55.3968 40.8186 55.9031 41.2964 56.3691 41.8096C56.6539 42.1216 56.819 42.0617 57.0898 41.793C58.4654 40.4264 59.8616 39.0783 61.252 37.7256ZM12.8623 38.4648C13.1297 38.2093 13.482 38.2056 13.7285 38.4326C14.292 38.9501 14.8211 39.5079 15.3271 40.0811C15.4104 40.1754 15.3719 40.4907 15.2744 40.6045C15.0505 40.8645 14.7427 41.0311 14.3926 40.791C14.2488 40.6927 14.129 40.5599 13.9365 40.3877C13.9365 41.6212 13.9382 42.7486 13.9355 43.876C13.9347 44.3544 13.6873 44.6568 13.3154 44.6465C12.9556 44.6369 12.7236 44.3477 12.7227 43.8945C12.72 42.7245 12.7217 41.5532 12.7217 40.29C12.537 40.4623 12.4159 40.5932 12.2773 40.7002C12.0074 40.9088 11.7073 40.9277 11.4443 40.7139C11.1638 40.4859 11.1679 40.1727 11.4502 39.877C11.9093 39.3951 12.3823 38.9258 12.8623 38.4648ZM7.90918 38.3564C8.21061 38.0702 8.536 38.0856 8.87402 38.417C9.38001 38.9127 9.85638 39.4388 10.3389 39.958C10.5592 40.1954 10.4892 40.4399 10.3037 40.6582C10.1208 40.8739 9.89043 40.9877 9.61426 40.832C9.46712 40.7485 9.33713 40.6326 9.16211 40.5039C9.14556 40.6118 9.12012 40.6992 9.12012 40.7871C9.1175 41.7562 9.12241 42.7253 9.11719 43.6943C9.11632 43.8508 9.10863 44.0176 9.05469 44.1611C8.9406 44.4681 8.72512 44.6925 8.36816 44.6318C8.01109 44.571 7.8174 44.3304 7.81641 43.9609C7.81466 42.8326 7.81651 41.7045 7.81738 40.5762C7.81738 40.5067 7.81728 40.436 7.81641 40.2754C7.56216 40.4501 7.37568 40.5791 7.18848 40.7061C6.88617 40.9096 6.63814 40.8006 6.42383 40.5605C6.20295 40.312 6.22742 40.0566 6.44922 39.8271C6.92922 39.3313 7.40828 38.8323 7.90918 38.3564ZM34.001 38.4023C34.3407 38.0789 34.6428 38.0734 34.9912 38.4092C35.4913 38.8911 35.9786 39.3888 36.4395 39.9072C36.6682 40.1646 36.6399 40.4723 36.3789 40.7227C36.1306 40.961 35.8636 40.9584 35.5996 40.7461C35.4872 40.6556 35.3866 40.5521 35.1924 40.3721C35.1924 41.6081 35.1972 42.745 35.1885 43.8818C35.1867 44.0461 35.1787 44.2783 35.0771 44.3604C34.9055 44.4987 34.6479 44.6245 34.4414 44.6045C34.1543 44.5765 33.9767 44.3408 33.9766 44.0176C33.9774 42.9468 33.9744 41.8764 33.9727 40.8057C33.9727 40.6813 33.973 40.5562 33.8711 40.3613C33.7997 40.4613 33.7361 40.5686 33.6543 40.6582C33.3686 40.9696 33.0125 40.974 32.6641 40.6758C32.4132 40.4618 32.394 40.0156 32.6484 39.7529C33.091 39.2954 33.5402 38.8416 34.001 38.4023ZM39.0957 38.3057C39.4153 38.0068 39.7349 38.1888 39.9805 38.4287C40.4553 38.8932 40.9277 39.3666 41.3389 39.8877C41.4469 40.0243 41.3972 40.3757 41.2979 40.5645C41.1654 40.8149 40.8929 40.946 40.5977 40.7451C40.4452 40.6416 40.3103 40.5128 40.1074 40.3467C40.1074 41.5246 40.1104 42.6205 40.1025 43.7148C40.1016 43.8817 40.0823 44.0683 40.0049 44.21C39.8655 44.463 39.6334 44.6442 39.3242 44.5479C38.9888 44.4426 38.8104 44.1724 38.8008 43.8262C38.7851 43.2636 38.7949 42.6992 38.7949 42.1357V40.2949C38.5929 40.4584 38.4453 40.5846 38.292 40.7012C38.0178 40.9086 37.7593 40.8193 37.5547 40.6055C37.3412 40.3819 37.3071 40.0946 37.5293 39.8623C38.0381 39.3299 38.5591 38.8085 39.0957 38.3057ZM40.5527 26.3506C40.2591 26.3497 40.2716 26.5092 40.2725 26.7119C40.2777 28.0272 40.2764 29.342 40.2764 30.6572V31.5488C40.3538 31.5349 40.3889 31.5391 40.4072 31.5234C40.9098 31.0903 41.4114 30.6536 41.9131 30.2188C42.7581 29.4854 43.2627 29.4904 44.1104 30.2246C44.6835 30.7203 45.2662 31.2047 45.8906 31.7344V26.3564C44.084 26.3564 42.3184 26.361 40.5527 26.3506ZM14.1367 31.6514C14.7735 31.1381 15.3542 30.6721 15.9326 30.2041C16.8325 29.4761 17.2163 29.4852 18.082 30.2383C18.6456 30.7289 19.2191 31.2067 19.835 31.7295C19.835 29.8966 19.8351 28.1418 19.8359 26.3906H14.1367V31.6514ZM62.0283 25.8936C62.152 25.4971 62.548 25.219 62.8633 25.2969C63.2997 25.4056 63.5933 25.8025 63.542 26.2227C63.5132 26.461 63.3803 26.7409 63.4648 26.9219C63.5255 27.0511 63.8729 27.0394 64.0879 27.1055C64.5696 27.2542 64.828 27.6608 64.7217 28.0879C64.6267 28.4723 64.2473 28.6858 63.7656 28.625C63.5505 28.598 63.3351 28.5707 63.1025 28.542C63.0302 28.7969 62.9712 29.019 62.9023 29.2373C62.7455 29.7331 62.3302 30.0353 61.9678 29.9248C61.6395 29.8244 61.3206 29.199 61.4014 28.8086C61.4161 28.7383 61.4389 28.6694 61.4658 28.6025C61.5939 28.2894 61.4661 28.1527 61.1533 28.0996C60.9452 28.0639 60.7338 28.0035 60.5439 27.9131C60.1833 27.7408 60.1054 27.4068 60.21 27.0684C60.3154 26.7309 60.5734 26.507 60.9619 26.5322C61.2477 26.5505 61.5309 26.599 61.8184 26.6338C61.8872 26.3895 61.9517 26.1396 62.0283 25.8936ZM34.9902 8.88281C34.9876 9.60821 34.7129 10.0035 34.1162 10.2236C33.5909 10.4176 33.1862 10.1661 32.8125 9.85645C31.923 9.11878 31.0449 8.36802 30.1484 7.61035C30.0423 7.69981 29.9553 7.77273 29.8691 7.8457C29.0615 8.52772 28.2616 9.21894 27.4453 9.88965C26.738 10.4715 26.0676 10.436 25.6094 9.77051C25.4501 9.53913 25.3581 9.21303 25.3555 8.92871C25.3354 6.64259 25.3438 4.35542 25.3438 2.03711C25.268 2.01885 25.2275 2.00098 25.1875 2.00098C23.2276 1.99837 21.2685 1.9975 19.3086 2.00098C19.1971 2.00185 19.0835 2.04029 18.9746 2.07422C18.1261 2.34041 17.889 2.92109 17.8838 3.88574C17.8507 10.1377 17.8672 16.3907 17.8672 22.6436C17.8672 22.7444 17.862 22.8465 17.8672 22.9473C17.9064 23.7354 18.2776 24.4684 19.3857 24.4414C20.9529 24.4031 22.5209 24.4316 24.0889 24.4316C29.6488 24.4316 35.2105 24.4334 40.7705 24.4316C41.7896 24.4307 42.338 23.9389 42.3389 23.0029C42.3432 16.5039 42.3432 10.0058 42.3389 3.50684C42.338 2.6056 41.7065 1.99794 40.7979 1.99707C38.998 1.99446 37.1973 1.99609 35.3975 1.99609H34.9932C34.9932 4.3414 34.9981 6.61232 34.9902 8.88281ZM27.5283 21.0186C27.9018 21.0178 28.1165 21.2341 28.1592 21.5498C28.2053 21.8837 27.9882 22.124 27.6582 22.2119C27.4937 22.2554 27.3139 22.253 27.1406 22.2539C26.0682 22.2574 24.9943 22.2559 23.9219 22.2559C22.8783 22.2559 21.8346 22.2566 20.791 22.2549C20.6465 22.2549 20.5011 22.2525 20.3584 22.2334C19.9952 22.1838 19.7757 21.9647 19.7529 21.6064C19.7338 21.3072 20.0831 21.0243 20.4395 21.0234C22.802 21.02 25.1658 21.0238 27.5283 21.0186ZM21.0283 14.0957C21.3018 13.8169 21.6365 13.8825 21.9805 14.2285C22.4386 14.6895 22.8802 15.1675 23.334 15.6328C23.6143 15.9198 23.5747 16.2129 23.3301 16.4746C23.0731 16.7504 22.7772 16.7508 22.4932 16.4863C22.4018 16.4021 22.306 16.3229 22.1572 16.1943C22.1572 17.3208 22.1579 18.3587 22.1553 19.3965C22.1544 19.5548 22.1535 19.7171 22.123 19.8711C22.0568 20.2083 21.8303 20.4098 21.4961 20.4316C21.1903 20.4508 20.9129 20.1095 20.9111 19.752C20.9068 18.6534 20.9092 17.5557 20.9092 16.458V16.1582C20.8691 16.1234 20.8291 16.0875 20.7891 16.0527C20.6741 16.2067 20.5718 16.3733 20.4395 16.5107C20.1913 16.7689 19.8999 16.7235 19.6621 16.5176C19.4243 16.3097 19.3353 16.0049 19.5547 15.7422C20.026 15.1767 20.5134 14.6211 21.0283 14.0957ZM25.8584 14.2139C26.2243 13.8381 26.5342 13.8218 26.9141 14.1924C27.4115 14.6778 27.8784 15.1937 28.3584 15.6982C28.5997 15.9514 28.5272 16.2103 28.332 16.4365C28.1413 16.6582 27.9004 16.7872 27.6104 16.5889C27.4712 16.4933 27.3422 16.3832 27.1543 16.2373C27.1543 17.3168 27.155 18.3484 27.1523 19.3809C27.1523 19.5392 27.159 19.7049 27.1172 19.8545C27.0231 20.1857 26.8128 20.428 26.4463 20.4316C26.1249 20.4342 25.8574 20.0884 25.8555 19.6963C25.8502 18.5245 25.8535 17.3532 25.8535 16.084C25.6732 16.2544 25.5567 16.3756 25.4287 16.4834C25.1083 16.7538 24.7684 16.7485 24.501 16.4766C24.2344 16.2043 24.2397 15.9465 24.5498 15.6055C24.9783 15.1342 25.4134 14.6695 25.8584 14.2139ZM4.75391 14.124C4.96383 13.523 4.90305 12.599 5.88184 12.8135C6.7973 13.0144 6.45738 13.7758 6.31445 14.3916C6.91558 14.6047 7.83149 14.5454 7.64941 15.4814C7.47164 16.3925 6.69799 16.1374 6.17969 15.9756C5.90452 16.4434 5.69406 16.8518 5.42676 17.2188C5.35532 17.3171 5.10028 17.3374 4.94434 17.3096C4.38632 17.2103 4.28937 16.8596 4.46875 15.7021C3.24235 15.3307 2.9499 15.0979 3.15723 14.5264C3.46046 13.6883 4.14767 14.004 4.75391 14.124ZM57.46 6.46191C57.7813 6.38644 58.1869 6.65643 58.2803 7.00586C58.3465 7.25379 58.4177 7.50222 58.4961 7.7832C59.4666 7.51092 59.9535 7.59887 60.1182 8.09473C60.2349 8.44524 60.1482 8.77826 59.8008 8.94531C59.5246 9.07754 59.2091 9.12838 58.8955 9.21973C58.9287 9.82949 59.2846 10.6186 58.3691 10.8369C57.4545 11.0551 57.4773 10.2203 57.3135 9.6123C57.1166 9.64709 56.9475 9.66204 56.7881 9.70898C56.3481 9.8386 55.8074 9.59139 55.6445 9.17383C55.5291 8.87893 55.8423 8.44586 56.2646 8.31543C56.9752 8.09545 56.9748 8.09542 56.8477 7.33984C56.7858 6.97013 57.0775 6.55152 57.46 6.46191ZM27.2041 7.41016C27.9027 6.82476 28.5656 6.29498 29.1963 5.73047C29.5038 5.4547 29.842 5.30871 30.2236 5.40527C30.5033 5.47662 30.7796 5.63353 31.0078 5.81445C31.6254 6.30328 32.2157 6.82636 32.876 7.38477V2.16992H27.2041V7.41016Z" fill="#AE278B"/>
</svg>
