<svg width="22" height="22" viewBox="0 0 22 22" fill="none" xmlns="http://www.w3.org/2000/svg">
<g clip-path="url(#clip0_1_948)">
<path d="M21.9152 13.0401C21.8012 11.8596 21.6443 10.6826 21.4734 9.50908C21.2281 7.83146 20.941 6.16082 20.4202 4.54025C20.075 3.46685 19.6297 2.44468 18.8044 1.64137C17.8 0.664606 16.5247 0.322329 15.1914 0.201252C13.8068 0.0755177 12.413 0.0394273 11.6679 -0.00131989C9.26734 0.0452484 7.51083 0.0126506 5.77873 0.364241C4.10359 0.704189 2.82369 1.58549 2.13783 3.16998C1.74375 4.08155 1.395 5.03503 1.19506 6.00365C0.809111 7.87337 0.51384 9.76287 0.234844 11.6524C-0.0139272 13.3463 -0.109251 15.0507 0.170908 16.7563C0.517328 18.8658 1.60309 20.3956 3.63511 21.1756C5.194 21.774 6.8331 21.9568 8.48034 21.9859C10.4693 22.0208 12.4607 21.9882 14.4485 21.93C15.6726 21.8939 16.8828 21.689 18.0522 21.2932C20.0203 20.6272 21.2642 19.3035 21.7292 17.2592C22.0465 15.8621 22.0512 14.4511 21.9152 13.0401ZM19.9715 16.4163C19.7146 18.2045 18.666 19.2197 16.963 19.6458C15.4099 20.0347 13.8278 20.1115 12.2386 20.1301C11.9445 20.1336 11.6504 20.1301 11.3563 20.1301C11.3552 20.1569 11.354 20.1848 11.3528 20.2116C9.75907 20.1208 8.16066 20.0696 6.57154 19.9229C5.84034 19.8554 5.1103 19.647 4.40584 19.4223C2.99807 18.9717 2.28895 17.9216 2.04948 16.5025C1.83675 15.2416 1.85883 13.9715 2.01809 12.7153C2.26222 10.7804 2.55167 8.85014 2.88879 6.9292C3.03992 6.06652 3.30264 5.21549 3.60256 4.39006C4.08383 3.06403 5.08008 2.29799 6.47041 2.13849C7.55849 2.01276 8.65704 1.96153 9.75326 1.93825C11.1064 1.91031 12.4607 1.92311 13.8127 1.9627C14.4753 1.98249 15.1402 2.07213 15.7947 2.18622C17.0316 2.4016 17.872 3.13272 18.3661 4.28063C18.859 5.42504 19.1043 6.63582 19.2984 7.85474C19.5553 9.46135 19.7948 11.0714 19.9854 12.6874C20.1308 13.9249 20.1494 15.1706 19.9715 16.4163Z" fill="black"/>
<path d="M14.1893 4.4333C13.6383 4.41467 13.2279 4.79886 13.1884 5.36932C13.1791 5.50669 13.1802 5.64523 13.1523 5.77912C12.9152 6.92819 11.9503 7.64767 10.7739 7.55919C9.70674 7.47886 8.86975 6.56263 8.81511 5.41589C8.78605 4.80933 8.37104 4.40885 7.7991 4.4333C7.26901 4.45658 6.90283 4.89316 6.9191 5.48108C6.98071 7.69889 8.75699 9.44287 10.9773 9.46616C13.207 9.48944 15.0669 7.66397 15.0832 5.43917C15.0879 4.87802 14.7089 4.45076 14.1893 4.4333Z" fill="black"/>
</g>
<defs>
<clipPath id="clip0_1_948">
<rect width="22" height="22" fill="white"/>
</clipPath>
</defs>
</svg>
