<svg width="54" height="54" viewBox="0 0 54 54" fill="none" xmlns="http://www.w3.org/2000/svg">
<path d="M40.7236 0.00878906C40.8317 0.0258479 40.9349 0.0681543 41.0244 0.132812C41.2499 0.295676 41.4989 0.524309 41.6484 0.845703C41.8096 1.19223 41.8217 1.57408 41.6914 1.95801C41.5502 2.37465 41.2743 2.66192 40.9102 2.80762C40.6745 2.90187 40.4312 2.92379 40.2334 2.9248L40.0527 2.9209H40.0508C39.954 2.91645 39.8787 2.91991 39.7285 2.91992H5.03516C4.83575 2.91992 4.67091 2.91598 4.5 2.9209L4.50098 2.92188C3.67219 2.94959 3.07504 3.46676 2.9961 4.12988V4.13086C2.90853 4.85969 2.94347 5.564 2.96387 6.35352H50.3467C50.3476 5.77034 50.3496 5.20601 50.3457 4.64062V4.63965C50.3425 4.0687 50.157 3.65335 49.8857 3.38184C49.6485 3.14443 49.3012 2.97211 48.835 2.93066L48.6279 2.9209C47.4309 2.91414 46.2364 2.91304 45.042 2.92383L45.041 2.92285C44.813 2.92498 44.4871 2.91458 44.1797 2.77734C43.8704 2.63913 43.6315 2.39909 43.4902 2.06738L43.4356 1.91895C43.3126 1.52923 43.3349 1.14056 43.5156 0.793945C43.6833 0.472561 43.9529 0.254325 44.1992 0.103516L44.2852 0.0585938C44.3729 0.0203399 44.468 6.63831e-05 44.5645 0H49.3262L49.415 0.00585938C49.4442 0.00961662 49.4734 0.0150408 49.502 0.0224609C50.4582 0.271676 51.5654 0.67916 52.2647 1.7168L52.5684 2.17285C52.6758 2.33935 52.7852 2.51674 52.8818 2.69531C53.0652 3.03402 53.2665 3.48444 53.2666 3.94238V38.5869C53.2666 38.6271 53.2637 38.6676 53.2568 38.707L53.2256 38.8242C53.1602 39.006 53.113 39.1232 53.0703 39.2607C52.5087 41.0898 50.9252 42.3514 49.0029 42.4414H49.002C48.7433 42.4533 48.4784 42.4572 48.2148 42.459C48.9591 43.1533 49.702 43.8468 50.4473 44.5391L50.5781 44.6689C50.7125 44.8116 50.8508 44.9927 50.9375 45.2178C51.0491 45.5073 51.0568 45.8169 50.958 46.127L50.9092 46.2598C50.7659 46.6019 50.5303 46.8698 50.2061 47.0273C49.9773 47.1384 49.7396 47.177 49.5215 47.1816L49.3106 47.1768C49.1892 47.1682 49.0918 47.1677 48.9268 47.1611H48.9248C46.5842 47.0611 44.235 46.9695 41.8877 46.8516C41.7856 46.8468 41.7565 46.8616 41.7549 46.8623C41.7528 46.8633 41.7438 46.8673 41.7275 46.8809L41.6514 46.9609C41.2797 47.4151 40.8999 47.8648 40.5195 48.3105L39.3838 49.6377L36.7861 52.6816C36.6212 52.8745 36.3943 53.0774 36.0898 53.1855C35.7659 53.3005 35.4249 53.2831 35.0967 53.1504V53.1514C34.7937 53.029 34.5407 52.8287 34.3721 52.5488C34.2093 52.2784 34.1548 51.9832 34.1523 51.7119L34.1504 51.3496L34.1465 46.917C34.1448 45.4684 34.1429 44.0198 34.1416 42.5713H10.9092L4.72754 42.5703C3.36136 42.5641 2.16875 42.0967 1.31641 41.2402C0.464237 40.3837 0.00304023 39.1898 0.00293336 37.8271V22.126L3.67014e-06 4.70312C-0.00152002 3.26477 0.47122 1.92299 1.72559 0.999023L1.97754 0.830078C2.23243 0.673213 2.49507 0.551028 2.73828 0.447266C3.09501 0.295091 3.35211 0.202856 3.64746 0.0654297L3.71778 0.0371094C3.7899 0.0126438 3.86589 5.05349e-05 3.94239 0H40.6143L40.7236 0.00878906ZM35.4775 52.541C35.4798 52.5416 35.4822 52.5415 35.4844 52.542C35.4435 52.5323 35.4015 52.5194 35.3584 52.502L35.4775 52.541ZM37.083 47.8281C37.8583 46.9205 38.63 46.0126 39.3926 45.0977C39.2259 44.6906 39.0537 44.2902 38.8779 43.8877L38.3203 42.6094C38.1684 42.2555 38.0734 41.8424 38.1914 41.4326C38.3184 40.9919 38.644 40.712 39.0029 40.5518L39.1416 40.4971C39.4713 40.3814 39.8458 40.3613 40.209 40.543C40.5926 40.7351 40.8326 41.0891 40.9893 41.4424L41.5459 42.7227C41.7223 43.1293 41.9001 43.5305 42.0889 43.9336C43.2699 43.9951 44.4527 44.0434 45.6836 44.0918C42.7924 41.3953 39.95 38.7446 37.083 36.0732V47.8281ZM49.4902 46.4824C49.4919 46.4824 49.4935 46.4815 49.4951 46.4814C49.4511 46.482 49.4056 46.4818 49.3594 46.4785L49.4902 46.4824ZM50.2637 45.9902L50.3057 45.8643C50.3066 45.8605 50.3058 45.8563 50.3066 45.8525C50.2963 45.8967 50.2834 45.9431 50.2637 45.9902ZM43.293 44.6943C43.7502 44.7152 44.2101 44.7339 44.6748 44.7529C43.7452 44.7149 42.8352 44.675 41.9258 44.627L43.293 44.6943ZM41.541 44.375C41.5597 44.3987 41.5802 44.422 41.6025 44.4443C41.5804 44.422 41.5597 44.3986 41.541 44.375ZM41.5068 44.3311C41.512 44.3389 41.5187 44.3457 41.5244 44.3535C41.5038 44.3253 41.4858 44.2972 41.4727 44.2695L41.5068 44.3311ZM46.7549 41.7783C46.6854 41.7874 46.6057 41.7991 46.5059 41.8105C46.7058 41.7876 46.8254 41.7631 46.9443 41.7617L46.7549 41.7783ZM48.9697 41.7422C49.0626 41.7378 49.1543 41.7285 49.2451 41.7178C49.1543 41.7286 49.0625 41.7379 48.9697 41.7422ZM40.1484 41.3848C40.221 41.476 40.2888 41.5893 40.3496 41.7266L40.251 41.5322C40.2186 41.4774 40.1837 41.4288 40.1484 41.3848ZM49.3047 41.71C49.3824 41.6995 49.4591 41.6868 49.5352 41.6719C49.4592 41.6868 49.3824 41.6995 49.3047 41.71ZM50.3887 41.3975C50.3018 41.4377 50.2134 41.4752 50.1231 41.5088L50.3887 41.3984C50.4753 41.3583 50.5597 41.3141 50.6426 41.2676L50.3887 41.3975ZM39.8281 41.1406C39.8512 41.1487 39.8742 41.1578 39.8965 41.1689L39.8291 41.1406C39.8061 41.1325 39.7826 41.1261 39.7588 41.1211L39.8281 41.1406ZM18.8242 40.2441C18.8588 40.2414 18.8911 40.2355 18.9219 40.2295C18.8911 40.2357 18.8588 40.2413 18.8242 40.2441ZM18.9326 40.2275C18.9626 40.2212 18.9908 40.2131 19.0176 40.2031C18.9908 40.2131 18.9626 40.221 18.9326 40.2275ZM44.6289 40.0586C44.6448 40.0692 44.6616 40.0782 44.6777 40.0879C44.6575 40.0757 44.6371 40.0634 44.6172 40.0498L44.6289 40.0586ZM35.5391 9.31055V9.31152C34.6009 11.3976 33.6581 13.4826 32.7188 15.5664C36.5236 15.5659 40.3318 15.5595 44.1397 15.5713L44.3447 15.5762C45.3647 15.6211 46.2679 15.9759 46.9356 16.6162C47.6499 17.3013 48.0392 18.2609 48.0527 19.3594L48.0684 21.3525C48.0764 23.3454 48.0637 25.337 48.0576 27.3223C48.0544 28.4281 47.6541 29.3994 46.834 30.1504L46.665 30.2969C45.9305 30.902 45.0968 31.0975 44.2891 31.1357L43.9453 31.1436C37.887 31.1368 31.8218 31.1417 25.7627 31.1309C25.7325 31.1309 25.7091 31.1335 25.6914 31.1348L25.6777 31.1621C24.436 33.9535 23.1754 36.7379 21.9229 39.5205H34.1387V39.4561C34.1373 37.2455 34.1321 35.0321 34.1348 32.8203C34.1349 32.3859 34.276 31.9529 34.5772 31.6387C34.8938 31.3086 35.3583 31.1481 35.8496 31.2676H35.8486C36.2808 31.3713 36.6296 31.6663 36.8301 31.8525L40.874 35.6143C42.2202 36.8697 43.5649 38.1269 44.9072 39.3867L45.0059 39.4697C45.099 39.5351 45.1817 39.5516 45.3086 39.5488C46.3769 39.5257 47.4725 39.5453 48.5117 39.54C49.2019 39.5366 49.6347 39.3452 49.8965 39.082C50.1583 38.8187 50.3466 38.3847 50.3467 37.6943V9.31738C45.4125 9.31758 40.4761 9.32074 35.54 9.30664L35.5391 9.31055ZM2.92286 37.7148L2.93164 37.9551C2.97155 38.4905 3.14392 38.8517 3.37403 39.084C3.63601 39.3484 4.06374 39.5375 4.72852 39.5381L18.709 39.5479H18.71L18.7158 39.5469C19.9666 36.7384 21.2375 33.9374 22.499 31.1377H20.6182C19.7214 31.1364 18.7865 31.1504 17.8613 31.1201V31.1191C17.4756 31.1066 17.1002 30.9667 16.832 30.6582C16.5704 30.357 16.4834 29.9786 16.4961 29.627L16.5049 29.502C16.5349 29.2102 16.6358 28.9083 16.8652 28.6621C17.1309 28.3771 17.484 28.2577 17.8291 28.2324L17.834 28.2314L18.1768 28.2197C18.2877 28.2186 18.3938 28.2197 18.4883 28.2197L43.9629 28.2178L44.165 28.2119C44.6005 28.1857 44.8009 28.0762 44.9014 27.9756C45.0164 27.8603 45.1429 27.614 45.1436 27.0352V19.5908C45.1424 19.0784 45.0208 18.8409 44.9053 18.7246C44.7906 18.6094 44.5564 18.4874 44.0469 18.4873H8.79395C8.29281 18.4874 8.05942 18.6099 7.94336 18.7275C7.82533 18.8473 7.70272 19.0888 7.70215 19.5986C7.7008 22.0801 7.7008 24.5615 7.70215 27.043L7.70801 27.2402C7.73427 27.6676 7.8448 27.8689 7.94825 27.9717C8.06763 28.0902 8.31916 28.2172 8.89258 28.2178L13.7578 28.2236L13.8975 28.2275C14.2258 28.2479 14.5678 28.3403 14.8438 28.583C15.1323 28.8369 15.2541 29.1707 15.2861 29.4932L15.2939 29.6309L15.293 29.7705C15.2767 30.0992 15.1694 30.4395 14.9053 30.709C14.6418 30.9778 14.2998 31.0963 13.9561 31.123L13.8096 31.1299C12.2407 31.1393 10.6419 31.1685 9.04493 31.1299L8.36036 31.1084C6.37675 31.034 4.9144 29.5512 4.80079 27.6104L4.79395 27.4209C4.76003 24.7127 4.76935 22.0056 4.79102 19.3027V19.3018L4.80079 19.0479C4.88513 17.7934 5.51706 16.7844 6.6045 16.1055L6.60547 16.1045L6.75 16.0195C7.47854 15.617 8.24924 15.5645 8.91993 15.5645H8.9209L29.4844 15.5742H29.4863L29.5273 15.5723C29.5281 15.5706 29.5304 15.5691 29.5313 15.5674L31.0391 12.1924C31.4652 11.2461 31.892 10.3006 32.3174 9.35645H2.92286C2.92284 18.8094 2.92151 28.2621 2.92286 37.7148ZM51.0283 38.0625C51.0295 38.0502 51.0311 38.0378 51.0322 38.0254C51.0312 38.0378 51.0295 38.0502 51.0283 38.0625ZM23.3555 30.9395C22.6877 32.4225 22.0179 33.9048 21.3496 35.3877L23.3564 30.9395L23.5469 30.4375C23.4617 30.6648 23.415 30.8055 23.3555 30.9395ZM36.2031 32.2344L36.0811 32.1416C36.0751 32.1374 36.0685 32.134 36.0625 32.1299C36.1106 32.1629 36.158 32.1976 36.2031 32.2344ZM25.166 30.6582C25.1612 30.6642 25.158 30.6714 25.1533 30.6777C25.1807 30.641 25.2083 30.6083 25.2393 30.5811L25.166 30.6582ZM14.5947 29.6484C14.5978 29.7691 14.5832 29.8781 14.5518 29.9736L14.5869 29.8203C14.594 29.7661 14.5962 29.7087 14.5947 29.6484ZM5.49317 27.4121C5.4959 27.6208 5.51736 27.8231 5.55567 28.0176L5.51172 27.7197C5.50132 27.6189 5.49551 27.5163 5.49414 27.4121C5.48569 26.7368 5.47912 26.061 5.47559 25.3857L5.49317 27.4121ZM7.03028 27.498C7.03513 27.535 7.04171 27.571 7.04786 27.6064C7.04096 27.5667 7.03456 27.5261 7.0293 27.4844L7.03028 27.498ZM14.4346 20.9766C14.6492 20.9766 14.866 21.0048 15.085 21.0605C15.3083 21.1121 15.5018 21.1873 15.665 21.2861C15.7723 21.3462 15.8461 21.4206 15.8848 21.5107C15.9234 21.6009 15.9342 21.692 15.917 21.7822C15.9041 21.8723 15.8667 21.9493 15.8066 22.0137C15.7509 22.0779 15.6804 22.1185 15.5947 22.1357C15.5089 22.1529 15.412 22.1339 15.3047 22.0781C15.1758 22.0008 15.0402 21.9455 14.8984 21.9111C14.7567 21.8768 14.6128 21.8594 14.4668 21.8594C14.179 21.8594 13.9359 21.9172 13.7383 22.0332C13.5453 22.1448 13.3995 22.308 13.3008 22.5225C13.202 22.7372 13.1523 23.0019 13.1523 23.3154C13.1524 23.6245 13.2021 23.8884 13.3008 24.1074C13.3995 24.3264 13.5452 24.4944 13.7383 24.6104C13.9359 24.722 14.179 24.7783 14.4668 24.7783C14.6043 24.7783 14.744 24.7609 14.8857 24.7266C15.0318 24.6922 15.1715 24.6384 15.3047 24.5654C15.4162 24.5097 15.5148 24.4898 15.6006 24.5068C15.6908 24.5197 15.7645 24.5586 15.8203 24.623C15.8804 24.6832 15.9168 24.7569 15.9297 24.8428C15.9467 24.9284 15.9375 25.0139 15.9033 25.0996C15.869 25.1855 15.8045 25.2592 15.71 25.3193C15.5511 25.4266 15.3558 25.5102 15.124 25.5703C14.8921 25.6304 14.6622 25.6602 14.4346 25.6602C13.9449 25.6601 13.5257 25.5644 13.1777 25.3711C12.8299 25.1778 12.562 24.9065 12.3731 24.5586C12.1884 24.2064 12.0957 23.7921 12.0957 23.3154C12.0957 22.959 12.147 22.6389 12.25 22.3555C12.3573 22.0679 12.5122 21.8229 12.7139 21.6211C12.9158 21.4149 13.1614 21.2552 13.4492 21.1436C13.7412 21.032 14.0697 20.9766 14.4346 20.9766ZM19.7412 21.0469C20.248 21.0469 20.6392 21.1693 20.9141 21.4141C21.189 21.6589 21.3262 22.0013 21.3262 22.4395C21.3261 22.7228 21.2642 22.9678 21.1397 23.1738C21.0151 23.3799 20.8347 23.5387 20.5986 23.6504C20.5141 23.6911 20.4211 23.7212 20.3223 23.7471C20.3958 23.7696 20.4644 23.8011 20.5273 23.8438C20.6648 23.9297 20.7831 24.0628 20.8818 24.2432L21.2813 24.9844C21.3413 25.0917 21.3695 25.1968 21.3652 25.2998C21.3609 25.4028 21.3219 25.4864 21.249 25.5508C21.176 25.6152 21.0685 25.6475 20.9268 25.6475C20.7851 25.6475 20.6693 25.6177 20.5791 25.5576C20.4932 25.4975 20.4154 25.4048 20.3467 25.2803L19.7285 24.1396C19.6642 24.0196 19.5845 23.9385 19.4902 23.8955C19.4001 23.8526 19.2883 23.8311 19.1553 23.8311H18.665V25.1318C18.665 25.2951 18.622 25.4225 18.5361 25.5127C18.4545 25.6027 18.332 25.6475 18.1689 25.6475C18.0058 25.6474 17.8808 25.6029 17.7949 25.5127C17.7091 25.4225 17.667 25.295 17.667 25.1318V21.5566C17.667 21.3892 17.7091 21.2617 17.7949 21.1758C17.8851 21.0899 18.0126 21.0469 18.1758 21.0469H19.7412ZM34.6387 20.9893C34.7974 20.9893 34.92 21.034 35.0059 21.124C35.0918 21.2142 35.1348 21.3417 35.1348 21.5049V25.1318C35.1348 25.2951 35.0918 25.4215 35.0059 25.5117C34.9242 25.6019 34.8019 25.6475 34.6387 25.6475C34.4756 25.6474 34.3515 25.6019 34.2656 25.5117C34.1797 25.4215 34.1367 25.2951 34.1367 25.1318V21.5049C34.1367 21.3417 34.1797 21.2142 34.2656 21.124C34.3515 21.0341 34.4758 20.9893 34.6387 20.9893ZM40.3018 21.0469C40.4349 21.0469 40.5383 21.0842 40.6113 21.1572C40.6841 21.2259 40.7207 21.327 40.7207 21.46C40.7206 21.5887 40.6843 21.6897 40.6113 21.7627C40.5383 21.8357 40.4349 21.8721 40.3018 21.8721H39.1611V25.1318C39.1611 25.2951 39.1181 25.4225 39.0322 25.5127C38.9506 25.6027 38.8281 25.6475 38.665 25.6475C38.5019 25.6474 38.3769 25.6029 38.291 25.5127C38.2052 25.4225 38.1631 25.295 38.1631 25.1318V21.8721H37.0225C36.8894 21.8721 36.7859 21.8356 36.7129 21.7627C36.6399 21.6897 36.6036 21.5887 36.6035 21.46C36.6035 21.3269 36.64 21.226 36.7129 21.1572C36.7859 21.0842 36.8893 21.0469 37.0225 21.0469H40.3018ZM25.9541 21.0469C26.0829 21.0469 26.1797 21.0817 26.2441 21.1504C26.3128 21.2148 26.3476 21.3092 26.3477 21.4336C26.3477 21.5625 26.3129 21.6617 26.2441 21.7305C26.1797 21.7948 26.0829 21.8271 25.9541 21.8271H24.1377V22.8896H25.8057C25.9388 22.8896 26.0381 22.9244 26.1025 22.9932C26.1712 23.0576 26.2061 23.1544 26.2061 23.2832C26.206 23.4119 26.1711 23.5104 26.1025 23.5791C26.0381 23.6435 25.9388 23.6758 25.8057 23.6758H24.1377V24.8105H25.9541C26.0829 24.8105 26.1797 24.8444 26.2441 24.9131C26.3128 24.9774 26.3476 25.0719 26.3477 25.1963C26.3477 25.3252 26.3129 25.4244 26.2441 25.4932C26.1797 25.5575 26.0829 25.5898 25.9541 25.5898H23.7061C23.5385 25.5898 23.4095 25.5443 23.3193 25.4541C23.2291 25.3639 23.1836 25.2349 23.1836 25.0674V21.5693C23.1836 21.4018 23.2291 21.2728 23.3193 21.1826C23.4095 21.0925 23.5386 21.0469 23.7061 21.0469H25.9541ZM29.8945 21.0469C30.6716 21.0469 31.2705 21.2448 31.6914 21.6396C32.1167 22.0305 32.3301 22.5895 32.3301 23.3154C32.3301 23.6804 32.2738 24.0046 32.1621 24.2881C32.0547 24.5673 31.8976 24.8038 31.6914 24.9971C31.4853 25.1902 31.2321 25.3384 30.9316 25.4414C30.6311 25.5402 30.2853 25.5898 29.8945 25.5898H28.6377C28.4702 25.5898 28.3412 25.5443 28.251 25.4541C28.1609 25.3639 28.1162 25.2348 28.1162 25.0674V21.5693C28.1162 21.4019 28.1608 21.2728 28.251 21.1826C28.3412 21.0924 28.4702 21.0469 28.6377 21.0469H29.8945ZM29.1143 24.7715H29.8359C30.0806 24.7715 30.2933 24.7417 30.4736 24.6816C30.654 24.6215 30.8045 24.5304 30.9248 24.4102C31.0449 24.29 31.1352 24.1401 31.1953 23.96C31.2554 23.7753 31.2861 23.5602 31.2861 23.3154C31.2861 22.8259 31.1636 22.4628 30.9189 22.2266C30.6784 21.986 30.317 21.8652 29.8359 21.8652H29.1143V24.7715ZM18.665 23.1094H19.5606C19.8268 23.1094 20.027 23.0556 20.1602 22.9482C20.2976 22.8409 20.3662 22.6796 20.3662 22.4648C20.3662 22.2545 20.2975 22.0957 20.1602 21.9883C20.027 21.8809 19.8269 21.8271 19.5606 21.8271H18.665V23.1094ZM31.6768 12.4805C31.2079 13.5215 30.7415 14.5637 30.2793 15.6074C31.2398 13.4387 32.2212 11.2781 33.1943 9.11523L31.6768 12.4805ZM35.1406 8.6748C35.1277 8.68299 35.117 8.69368 35.1055 8.70312C35.1206 8.69079 35.1361 8.67844 35.1533 8.66797L35.1406 8.6748ZM2.27539 7.05371L2.26563 6.39551C2.2649 6.36751 2.26347 6.33953 2.2627 6.31152L2.27539 7.05371ZM8.44141 3.96191C8.85001 3.96878 9.15874 4.29315 9.16016 4.7207C9.16287 5.15379 8.86622 5.46392 8.44532 5.4707C8.02575 5.47747 7.71411 5.17536 7.69922 4.74902C7.68447 4.30792 8.01651 3.9565 8.44141 3.96191ZM11.6162 3.96289C12.0235 3.97247 12.3369 4.3028 12.3369 4.72363C12.3369 5.14861 12.0301 5.46529 11.6133 5.4707C11.1898 5.47611 10.8838 5.17861 10.8701 4.74707C10.8566 4.30585 11.1912 3.95342 11.6162 3.96289ZM5.2959 3.96289C5.70735 3.98319 5.9919 4.30698 5.98243 4.74414C5.97289 5.18799 5.68561 5.47379 5.25391 5.46973C4.82505 5.46552 4.54237 5.17136 4.54102 4.72754C4.53977 4.27435 4.86843 3.94276 5.2959 3.96289ZM50.2002 2.72852C50.1856 2.71695 50.1702 2.70652 50.1553 2.69531C50.1702 2.70651 50.1856 2.71695 50.2002 2.72852ZM50.0273 2.60547C50.011 2.59498 49.9942 2.58528 49.9775 2.5752C49.9942 2.58528 50.011 2.59498 50.0273 2.60547ZM49.8467 2.50195C49.8241 2.4903 49.8014 2.47873 49.7783 2.46777C49.8014 2.47873 49.8241 2.4903 49.8467 2.50195ZM49.6475 2.41113C49.6229 2.40128 49.5984 2.39094 49.5732 2.38184C49.5984 2.39094 49.6229 2.40128 49.6475 2.41113ZM49.4365 2.33789C49.4103 2.33009 49.3842 2.32148 49.3574 2.31445C49.3842 2.32148 49.4103 2.33009 49.4365 2.33789ZM49.2256 2.28418C49.1907 2.27691 49.1558 2.26869 49.1201 2.2627C49.1558 2.26868 49.1907 2.27692 49.2256 2.28418ZM48.8984 2.23438C48.9447 2.23852 48.9901 2.24578 49.0352 2.25195C48.9055 2.23417 48.7712 2.22247 48.6318 2.22168L48.8984 2.23438ZM51.0811 1.46973C51.1265 1.50459 51.1713 1.54045 51.2148 1.57812C51.1276 1.50257 51.0363 1.43276 50.9414 1.36816L51.0811 1.46973ZM49.6699 0.796875C49.8975 0.865498 50.1205 0.943558 50.334 1.03711L50.0078 0.907227C49.7862 0.827509 49.5573 0.760428 49.3262 0.700195L49.6699 0.796875Z" fill="#AE278B"/>
</svg>
