<svg width="112" height="112" viewBox="0 0 112 112" fill="none" xmlns="http://www.w3.org/2000/svg">
<path d="M111.939 89.8109C111.846 86.8025 109.614 84.6565 106.613 84.5629C105.611 84.5295 104.608 84.5495 103.606 84.5495C103.038 84.5495 102.47 84.5495 101.955 84.5495C102.182 83.3128 102.53 82.2966 102.53 81.2804C102.57 70.4635 102.59 59.6399 102.53 48.8231C102.51 44.9924 99.6361 42.3049 95.8135 42.2915C91.0886 42.2781 86.3571 42.2848 81.6322 42.2848C80.8838 42.2848 80.1286 42.2848 79.6474 42.2848C79.7744 40.2725 79.9882 38.3404 79.9949 36.4084C80.0283 26.6678 80.015 16.934 80.0083 7.19343C80.0083 2.68751 77.3418 0.00668534 72.8442 0C61.6034 0 50.3427 0 39.0819 0.00668534C34.5843 0.00668534 31.9178 2.69419 31.9178 7.19343C31.9178 17.0543 31.8977 26.9085 31.9378 36.7694C31.9445 38.5811 32.1784 40.3928 32.3121 42.3182C32.145 42.3182 31.7173 42.3182 31.2896 42.3182C26.4444 42.3182 21.5926 42.3115 16.7475 42.3182C12.1496 42.3249 9.38954 45.0659 9.37618 49.6253C9.3695 55.4349 9.27594 61.2511 9.40291 67.054C9.5232 72.8636 8.82149 78.6999 9.93755 84.5562C8.46062 84.5562 6.977 84.5295 5.50007 84.5629C2.34572 84.6231 0.18044 86.6621 0.0668295 89.7908C-0.0200488 92.2711 -0.0267318 94.7647 0.0735124 97.245C0.200489 100.354 2.43259 102.399 5.56021 102.419C7.03046 102.433 8.50071 102.419 10.1046 102.419C10.1046 103.857 10.0913 105.167 10.1046 106.477C10.1447 109.84 12.2432 111.953 15.598 111.986C17.6831 112.006 19.7682 112 21.8466 111.986C25.3016 111.959 27.3667 109.887 27.3867 106.437C27.3934 105.127 27.3867 103.823 27.3867 102.48C34.1031 102.48 40.6524 102.48 47.3287 102.48C47.3287 103.89 47.3153 105.241 47.3287 106.591C47.3688 109.793 49.4806 111.933 52.6951 111.979C54.9004 112.013 57.1058 112.013 59.3045 111.979C62.5123 111.926 64.5974 109.787 64.6241 106.571C64.6308 105.221 64.6241 103.877 64.6241 102.473C71.3204 102.473 77.8764 102.473 84.5727 102.473C84.5727 103.884 84.5661 105.16 84.5727 106.444C84.5861 109.867 86.6779 111.959 90.1329 111.986C92.0977 112 94.0625 111.993 96.0206 111.986C99.85 111.979 101.868 109.954 101.868 106.116C101.868 104.893 101.868 103.676 101.868 102.419C103.552 102.419 105.036 102.433 106.52 102.419C109.527 102.386 111.826 100.26 111.926 97.2717C112.02 94.7781 112.02 92.2912 111.939 89.8109ZM84.8735 58.3697C85.7356 57.8683 85.7757 57.0393 85.7757 56.1703C85.7623 53.1685 85.769 50.1601 85.769 47.1584C85.769 46.7239 85.769 46.2826 85.769 45.6743C86.7046 45.6743 87.5667 45.6743 88.4288 45.6743C90.7144 45.6743 92.9933 45.6743 95.2788 45.6743C98.0055 45.681 99.1549 46.8108 99.1616 49.5384C99.1683 59.192 99.1616 68.8457 99.1616 78.4993C99.1616 79.4219 99.195 80.3445 99.1482 81.2604C99.0413 83.3261 97.8451 84.5295 95.7667 84.5362C84.2319 84.5562 72.6971 84.5562 61.1624 84.5362C59.0906 84.5295 57.8543 83.2793 57.8476 81.2269C57.8276 70.4501 57.8276 59.6734 57.8476 48.8966C57.8476 47.1651 58.9035 45.7946 60.5208 45.7411C64.0293 45.6275 67.5446 45.7077 71.1868 45.7077C71.1868 46.8776 71.1868 47.9473 71.1868 49.0169C71.1868 51.5039 71.1601 53.9841 71.1935 56.4711C71.2202 58.4299 72.4833 59.1051 74.1674 58.0889C75.23 57.4538 76.326 56.8455 77.3151 56.1034C78.097 55.5151 78.6917 55.6154 79.4402 56.1168C80.436 56.7853 81.5053 57.3469 82.5277 57.9686C83.2696 58.4098 83.9913 58.8778 84.8735 58.3697ZM82.374 45.7478C82.374 48.4554 82.374 51.076 82.374 53.8839C81.4585 53.3557 80.6164 52.9279 79.8412 52.4064C78.8187 51.7178 77.8697 51.6978 76.8606 52.4331C76.2324 52.8944 75.5307 53.2554 74.702 53.7635C74.702 50.9824 74.702 48.4153 74.702 45.7478C77.2081 45.7478 79.7343 45.7478 82.374 45.7478ZM52.1938 3.56329C54.7133 3.56329 57.2061 3.56329 59.779 3.56329C59.779 6.21737 59.779 8.83802 59.779 11.6726C58.7832 11.0843 57.9144 10.6096 57.0924 10.0748C56.2103 9.49987 55.395 9.5333 54.5396 10.1283C53.8245 10.623 53.0693 11.0509 52.2005 11.5924C52.1938 8.83134 52.1938 6.23074 52.1938 3.56329ZM38.9817 3.40953C41.862 3.38947 44.749 3.40284 47.6361 3.40953C47.9502 3.40953 48.2576 3.45632 48.7187 3.48975C48.7187 7.06641 48.7254 10.5094 48.7187 13.9523C48.7187 14.808 48.6853 15.6704 49.5875 16.1518C50.4696 16.6198 51.1981 16.1785 51.9332 15.7373C53.2631 14.9351 54.593 13.5712 55.943 13.5445C57.2462 13.5178 58.5761 14.8816 59.8926 15.6437C60.0998 15.764 60.2936 15.9044 60.5074 16.0181C61.9643 16.7936 63.214 16.1117 63.2341 14.4738C63.2742 11.2715 63.2474 8.06252 63.2474 4.86024C63.2474 4.43238 63.2474 3.99784 63.2474 3.49643C63.7219 3.46301 64.0761 3.40953 64.4236 3.40953C67.2706 3.40284 70.1108 3.38947 72.9578 3.40953C75.4772 3.4229 76.6601 4.59952 76.6601 7.08646C76.6668 17.5825 76.6668 28.0784 76.6601 38.5744C76.6601 41.0747 75.4772 42.2848 73.0045 42.2848C61.6703 42.2915 50.336 42.2915 39.0017 42.2848C36.5223 42.2848 35.3127 41.0748 35.3127 38.6012C35.306 28.1052 35.306 17.6092 35.3127 7.11321C35.306 4.61289 36.4755 3.42958 38.9817 3.40953ZM29.826 45.7745C32.4123 45.7745 34.8716 45.7745 37.4112 45.7745C37.4112 48.4554 37.4112 51.0827 37.4112 53.9106C36.676 53.4761 35.9676 53.1418 35.3528 52.6872C34.0964 51.7646 32.9135 51.6643 31.6571 52.6872C31.1425 53.1084 30.521 53.3958 29.826 53.817C29.826 51.076 29.826 48.4687 29.826 45.7745ZM16.7341 45.7144C19.5409 45.701 22.3411 45.7077 25.1479 45.7144C25.4955 45.7144 25.843 45.7612 26.3375 45.7946C26.3375 46.2893 26.3375 46.7172 26.3375 47.145C26.3375 50.3072 26.3175 53.4761 26.3509 56.6382C26.3709 58.4633 27.6006 59.1319 29.1778 58.1959C30.4208 57.4605 31.6104 56.6449 32.8667 55.9496C33.1942 55.7691 33.7823 55.7558 34.1098 55.9296C35.4531 56.6382 36.7295 57.4672 38.0527 58.216C39.6366 59.1118 40.8462 58.4098 40.8529 56.5847C40.8729 53.0215 40.8596 49.4649 40.8596 45.8213C41.2405 45.7745 41.5412 45.7144 41.8486 45.7144C44.6889 45.7077 47.5358 45.6876 50.3761 45.7144C52.8889 45.7344 54.4193 47.2587 54.4259 49.7791C54.4393 60.0344 54.4393 70.2897 54.4259 80.545C54.4193 83.0921 52.9223 84.5295 50.356 84.5295C39.1019 84.5295 27.8479 84.5295 16.5938 84.5295C13.9807 84.5295 12.7845 83.3462 12.7778 80.7055C12.7711 70.3699 12.7711 60.0344 12.7778 49.6988C12.7845 46.9512 14.0075 45.7211 16.7341 45.7144ZM23.9851 106.778C23.9717 107.888 23.3302 108.523 22.2743 108.543C19.9152 108.597 17.5561 108.59 15.197 108.543C14.1745 108.523 13.553 107.875 13.5129 106.859C13.4528 105.428 13.4996 103.997 13.4996 102.486C17.0148 102.486 20.4298 102.486 23.9918 102.486C23.9851 103.991 23.9985 105.388 23.9851 106.778ZM61.2091 106.798C61.169 107.875 60.5342 108.53 59.4582 108.55C57.1392 108.597 54.8202 108.59 52.5013 108.557C51.4921 108.543 50.7971 107.968 50.737 106.952C50.6568 105.488 50.7169 104.017 50.7169 102.48C54.2388 102.48 57.6538 102.48 61.2091 102.48C61.2225 104.011 61.2626 105.408 61.2091 106.798ZM98.3396 107.153C98.2861 108.089 97.5443 108.537 96.6622 108.55C94.3365 108.583 92.0109 108.603 89.6919 108.55C88.529 108.523 87.9677 107.868 87.9409 106.691C87.9142 105.328 87.9343 103.97 87.9343 102.466C91.4562 102.466 94.8444 102.466 98.3597 102.466C98.3663 104.064 98.4265 105.615 98.3396 107.153ZM108.518 96.3559C108.511 98.4751 107.936 99.0434 105.784 99.0434C76.62 99.0434 47.4623 99.0434 18.2979 99.0434C14.1745 99.0434 10.0445 99.05 5.92109 99.0434C4.09665 99.0434 3.44172 98.4082 3.42167 96.6099C3.40162 94.5241 3.40162 92.4449 3.42167 90.3591C3.44172 88.534 4.06323 87.9323 5.90773 87.9323C18.9261 87.939 31.9445 87.9524 44.9629 87.9658C48.6452 87.9658 52.3342 87.9658 56.0165 87.9658C56.0165 87.9524 56.0165 87.9457 56.0165 87.9323C72.5568 87.9323 89.1038 87.9323 105.644 87.9323C108.03 87.9323 108.504 88.4203 108.511 90.8271C108.524 92.6722 108.524 94.5174 108.518 96.3559Z" fill="white"/>
<path d="M19.7684 79.6291C21.7331 79.6558 23.6912 79.6358 25.656 79.6358C27.6208 79.6358 29.5856 79.6491 31.5437 79.6291C32.9605 79.6157 33.6756 79.0007 33.6422 77.8909C33.6154 76.848 32.887 76.2396 31.5638 76.2329C27.6409 76.2196 23.7113 76.2196 19.7884 76.2329C18.4986 76.2396 17.7434 76.8948 17.7367 77.9243C17.7301 78.9873 18.4451 79.6157 19.7684 79.6291Z" fill="white"/>
<path d="M19.7883 72.7899C21.713 72.81 23.6377 72.7966 25.5557 72.7966C27.5606 72.7966 29.5655 72.81 31.5637 72.7899C32.8802 72.7765 33.6087 72.1749 33.6354 71.132C33.6622 70.0489 32.9738 69.4138 31.6506 69.4071C27.6809 69.3871 23.7179 69.3871 19.7482 69.4071C18.4117 69.4138 17.7166 70.0356 17.7233 71.0985C17.75 72.1348 18.5052 72.7765 19.7883 72.7899Z" fill="white"/>
<path d="M42.2766 28.874C44.2414 28.894 46.1995 28.8806 48.1643 28.8806C50.1692 28.8806 52.1674 28.894 54.1723 28.874C55.4621 28.8606 56.2172 28.2188 56.2039 27.1826C56.1905 26.1998 55.442 25.5112 54.2525 25.5045C50.2494 25.4845 46.2396 25.4845 42.2365 25.5045C41.0135 25.5112 40.3118 26.153 40.2851 27.1625C40.265 28.2388 40.9601 28.8606 42.2766 28.874Z" fill="white"/>
<path d="M54.1654 32.3971C52.2007 32.3837 50.2359 32.3904 48.2778 32.3904C46.3197 32.3904 44.3482 32.3837 42.3901 32.3904C40.98 32.3971 40.2582 32.9921 40.2916 34.1086C40.3184 35.1582 41.0401 35.7665 42.3634 35.7665C46.2929 35.7799 50.2158 35.7799 54.1454 35.7665C55.4152 35.7598 56.1971 35.0913 56.2104 34.0751C56.2104 33.059 55.4486 32.4105 54.1654 32.3971Z" fill="white"/>
<path d="M64.6911 72.7834C68.7009 72.8035 72.704 72.8035 76.7138 72.7834C77.9234 72.7767 78.6585 72.1216 78.6852 71.1321C78.712 70.0892 77.9635 69.414 76.687 69.4006C74.7222 69.3806 72.7575 69.3939 70.7993 69.3939C68.7544 69.3939 66.7094 69.3739 64.6711 69.4006C63.4949 69.414 62.733 70.116 62.7464 71.092C62.7531 72.0748 63.5149 72.7767 64.6911 72.7834Z" fill="white"/>
<path d="M76.6334 76.2395C72.7105 76.2261 68.781 76.2261 64.8514 76.2395C63.5549 76.2462 62.7797 76.8746 62.7396 77.8908C62.6995 78.9337 63.5081 79.6156 64.8648 79.629C66.7895 79.649 68.7141 79.6357 70.6322 79.6357C72.637 79.6357 74.6419 79.649 76.6401 79.629C77.9366 79.6156 78.6918 78.9605 78.6784 77.9376C78.6717 76.9081 77.9099 76.2462 76.6334 76.2395Z" fill="white"/>
</svg>
