<svg width="55" height="57" viewBox="0 0 55 57" fill="none" xmlns="http://www.w3.org/2000/svg">
<path d="M1.27765 29.0258C1.92448 28.939 2.63031 29.3747 2.81378 30.018C2.90699 30.3412 2.93522 30.6891 2.9632 31.0278C3.24935 34.4285 4.19207 37.6457 5.88409 40.602C10.0022 47.7951 16.1757 52.0386 24.4056 53.1733C29.1707 53.8261 33.7371 53.0179 38.0823 50.9662C38.2845 50.8699 38.4714 50.7554 38.7855 50.5844C38.1696 50.4725 37.6807 50.3971 37.1985 50.2914C36.3684 50.1079 35.9177 49.4555 36.0296 48.6381C36.1322 47.8922 36.782 47.3231 37.5843 47.4379C39.4753 47.7115 41.3573 48.0289 43.2327 48.3832C43.9698 48.52 44.3965 49.1539 44.2816 49.9155C44.011 51.7806 43.7087 53.6458 43.3665 55.4985C43.2203 56.2849 42.5048 56.7043 41.721 56.5893C40.9935 56.4803 40.4803 55.8777 40.5394 55.0883C40.5922 54.3702 40.7323 53.655 40.8411 52.8871C39.7525 53.3814 38.7448 53.8913 37.6966 54.311C22.1043 60.5561 4.605 51.5194 0.701477 35.1869C0.337643 33.6702 0.182269 32.0974 0.00811798 30.5434C-0.0789726 29.7476 0.515607 29.1284 1.27765 29.0258ZM26.0853 13.6196C29.656 13.6196 33.2302 13.607 36.804 13.6225C39.8677 13.635 42.0388 15.3797 42.5364 18.2084C42.6017 18.5875 42.6048 18.9794 42.6048 19.3647C42.611 22.5042 42.6077 25.6441 42.6077 28.7836C42.6077 31.9232 42.6108 35.063 42.6077 38.2026C42.6045 41.6437 40.3216 43.9532 36.8909 43.9594C30.5893 43.9687 24.2845 43.9687 17.9798 43.9594C14.5865 43.9562 12.2849 41.6436 12.2786 38.2553C12.2755 31.976 12.2755 25.6967 12.2786 19.4174C12.2786 15.9234 14.5212 13.6575 18.0296 13.6264C20.7138 13.6015 23.4011 13.6196 26.0853 13.6196ZM18.1048 16.5512C16.139 16.5543 15.1771 17.5151 15.1771 19.4828C15.174 25.6905 15.174 31.9012 15.1771 38.1088C15.1802 40.0734 16.1416 41.0277 18.1165 41.0278H36.7513C38.7666 41.0277 39.7151 40.0831 39.7151 38.0659V26.7407C39.7151 24.2415 39.7247 21.739 39.7122 19.2368C39.7059 17.8442 38.8661 16.7128 37.6282 16.6039C36.437 16.5014 35.233 16.5825 33.9671 16.5825V17.3627C33.9671 19.2059 33.9987 21.049 33.9583 22.8891C33.9054 25.1863 31.7623 26.3987 29.7562 25.2953C29.1373 24.9565 28.549 24.5592 27.9114 24.267C27.6564 24.1489 27.2552 24.1392 27.0032 24.2573C26.3252 24.5712 25.6936 24.9844 25.0374 25.3481C24.2537 25.7832 23.4358 25.8642 22.6116 25.4975C21.4391 24.9784 20.9283 24.0273 20.9251 22.7778C20.922 20.7324 20.9251 18.6899 20.9251 16.5512C19.9177 16.5512 19.0097 16.5481 18.1048 16.5512ZM37.0159 36.3618C37.9893 36.365 38.6458 36.9685 38.6458 37.8139C38.6425 38.6655 37.992 39.2401 37.0062 39.2494C35.8462 39.2588 36.241 39.2524 35.0814 39.2524C33.943 39.2524 34.9844 39.2619 33.846 39.2494C32.885 39.2401 32.2754 38.6838 32.263 37.8383C32.2475 36.968 32.8792 36.3649 33.8558 36.3618C36.1538 36.3524 34.7175 36.3524 37.0159 36.3618ZM19.5823 33.4584C19.7054 33.4585 19.7981 33.4914 19.8597 33.5571C19.9251 33.6186 19.9573 33.7088 19.9573 33.8276C19.9573 33.9505 19.9251 34.0451 19.8597 34.1108C19.7981 34.1723 19.7054 34.2035 19.5823 34.2035H17.931V35.2631H19.4466C19.5696 35.2632 19.6641 35.2962 19.7298 35.3618C19.7955 35.4234 19.8284 35.5141 19.8284 35.6332C19.8284 35.7523 19.7955 35.8449 19.7298 35.9106C19.6641 35.9762 19.5697 36.0092 19.4466 36.0092H17.931V37.352C17.931 37.6888 17.7744 37.8578 17.4622 37.8578C17.3061 37.8578 17.1852 37.8142 17.0989 37.728C17.0168 37.6417 16.9759 37.5163 16.9759 37.352V33.9575C16.9759 33.7972 17.0185 33.6736 17.1048 33.5873C17.1911 33.5011 17.3147 33.4584 17.4749 33.4584H19.5823ZM22.2269 33.4584C22.7116 33.4584 23.086 33.5749 23.3489 33.809C23.6118 34.0432 23.7435 34.3705 23.7435 34.7895C23.7434 35.0604 23.6838 35.2946 23.5648 35.4916C23.4457 35.6888 23.273 35.8409 23.0472 35.9477C22.9665 35.9865 22.8778 36.0148 22.7835 36.0395C22.8536 36.061 22.9188 36.0916 22.9788 36.1323C23.1102 36.2144 23.2232 36.3417 23.3177 36.5141L23.7005 37.2231C23.7579 37.3257 23.7847 37.4264 23.7806 37.5248C23.7765 37.6234 23.739 37.7035 23.6693 37.7651C23.5994 37.8267 23.4962 37.8578 23.3607 37.8578C23.2253 37.8578 23.1148 37.8284 23.0286 37.7709C22.9465 37.7134 22.8727 37.6254 22.8069 37.5063L22.2151 36.4155C22.1535 36.3005 22.077 36.2231 21.9866 36.1821C21.9004 36.141 21.7936 36.1196 21.6663 36.1196H21.1985V37.3647C21.1985 37.5206 21.1574 37.6417 21.0755 37.728C20.9975 37.8142 20.88 37.8578 20.7239 37.8578C20.5678 37.8578 20.4487 37.8142 20.3665 37.728C20.2844 37.6417 20.2435 37.5207 20.2435 37.3647V33.9448C20.2435 33.7846 20.2844 33.6636 20.3665 33.5815C20.4527 33.4994 20.5738 33.4585 20.7298 33.4584H22.2269ZM26.9368 33.4584C27.06 33.4585 27.1526 33.4914 27.2142 33.5571C27.2797 33.6186 27.3128 33.7087 27.3128 33.8276C27.3128 33.9506 27.2797 34.0451 27.2142 34.1108C27.1526 34.1724 27.06 34.2035 26.9368 34.2035H25.1995V35.2201H26.7952C26.9224 35.2202 27.0169 35.2531 27.0784 35.3188C27.1441 35.3804 27.177 35.4729 27.1771 35.5961C27.1771 35.7193 27.144 35.8136 27.0784 35.8793C27.0169 35.9409 26.9224 35.9721 26.7952 35.9721H25.1995V37.0571H26.9368C27.0599 37.0571 27.1526 37.0891 27.2142 37.1547C27.2799 37.2163 27.3128 37.3071 27.3128 37.4262C27.3128 37.5493 27.2797 37.6437 27.2142 37.7094C27.1526 37.771 27.06 37.8022 26.9368 37.8022H24.7864C24.6262 37.8022 24.5026 37.7586 24.4163 37.6723C24.3303 37.5861 24.2874 37.4631 24.2874 37.3032V33.9575C24.2874 33.7973 24.3301 33.6736 24.4163 33.5873C24.5026 33.5011 24.6262 33.4584 24.7864 33.4584H26.9368ZM30.4212 33.4584C30.5444 33.4584 30.6369 33.4913 30.6985 33.5571C30.7641 33.6186 30.7971 33.7087 30.7972 33.8276C30.7972 33.9506 30.7641 34.0451 30.6985 34.1108C30.6369 34.1724 30.5444 34.2035 30.4212 34.2035H28.6839V35.2201H30.2796C30.4068 35.2202 30.5012 35.2532 30.5628 35.3188C30.6285 35.3804 30.6614 35.4729 30.6614 35.5961C30.6614 35.7193 30.6284 35.8136 30.5628 35.8793C30.5012 35.9409 30.4069 35.9721 30.2796 35.9721H28.6839V37.0571H30.4212C30.5443 37.0571 30.6369 37.0891 30.6985 37.1547C30.7643 37.2163 30.7972 37.3071 30.7972 37.4262C30.7972 37.5493 30.7641 37.6437 30.6985 37.7094C30.6369 37.771 30.5444 37.8022 30.4212 37.8022H28.2708C28.1106 37.8022 27.987 37.7586 27.9007 37.6723C27.8147 37.5861 27.7718 37.4631 27.7718 37.3032V33.9575C27.7718 33.7973 27.8145 33.6736 27.9007 33.5873C27.987 33.5011 28.1106 33.4584 28.2708 33.4584H30.4212ZM21.1985 35.4301H22.055C22.3096 35.4301 22.5009 35.3785 22.6282 35.2758C22.7595 35.1732 22.8254 35.0191 22.8255 34.8139C22.8255 34.6128 22.7595 34.4605 22.6282 34.3578C22.5009 34.2552 22.3096 34.2036 22.055 34.2035H21.1985V35.4301ZM37.0189 32.2153C38.014 32.2216 38.6481 32.8187 38.6419 33.6703C38.6356 34.5251 37.9828 35.1121 37.0032 35.1215C35.8431 35.134 36.2376 35.1254 35.0775 35.1254C33.9643 35.1254 35.0246 35.1308 33.9114 35.1215C32.9192 35.1122 32.2754 34.5469 32.263 33.6889C32.2475 32.8154 32.8541 32.2246 33.8587 32.2153C36.1568 32.1966 34.7204 32.1997 37.0189 32.2153ZM14.1263 1.43109C14.316 0.361773 15.0035 -0.151111 15.9241 0.0385095C16.7358 0.206388 17.1554 0.961529 16.9876 1.94671C16.9068 2.40979 16.8475 2.87637 16.7884 3.268C18.6607 2.76444 20.4773 2.16758 22.3372 1.79144C35.323 -0.838419 48.8352 6.84051 53.2737 19.309C54.1383 21.7429 54.6922 24.2392 54.8851 26.8129C54.9813 28.0935 53.8984 28.9325 52.8441 28.4321C52.3061 28.174 52.0421 27.7261 51.9954 27.1293C51.7777 24.4157 51.2331 21.7705 50.1165 19.2807C46.4494 11.1114 40.2223 6.14395 31.3919 4.54925C27.2614 3.80322 23.1933 4.23208 19.2308 5.62152C19.007 5.69918 18.7828 5.78621 18.5745 6.00042C19.1591 6.10608 19.7499 6.20247 20.3314 6.32367C21.1556 6.49464 21.6658 7.17907 21.5569 7.94378C21.4449 8.7426 20.7386 9.30871 19.8802 9.17816C18.0576 8.90461 16.241 8.59999 14.4339 8.26117C13.5693 8.09946 13.1369 7.41178 13.2737 6.54144C13.5443 4.83488 13.8246 3.13143 14.1263 1.43109ZM23.9173 22.6342C24.8069 22.1275 25.6286 21.6957 26.4124 21.2045C27.1059 20.7726 27.7498 20.7569 28.4495 21.1889C29.252 21.6863 30.0919 22.1275 30.9876 22.6342V16.5883H23.9212C23.9212 18.5994 23.9204 20.5703 23.9173 22.6342Z" fill="#AE278B"/>
</svg>
