<svg width="22" height="14" viewBox="0 0 22 14" fill="none" xmlns="http://www.w3.org/2000/svg">
<path d="M21.0381 6.7315C20.9229 6.65939 20.8217 6.52472 20.7732 6.39719C20.4127 5.45328 20.069 4.5028 19.7169 3.5559C19.48 2.91888 18.9672 2.56729 18.2824 2.5667C17.3067 2.5655 16.3316 2.5667 15.3558 2.5667C15.2752 2.5667 15.1952 2.5667 15.1237 2.5667C15.1098 2.52677 15.1013 2.51366 15.1013 2.49995C15.0995 1.96483 15.0989 1.42911 15.0977 0.893982C15.0971 0.537034 14.9856 0.425003 14.6292 0.425003C13.2147 0.423811 11.8008 0.423811 10.3863 0.423811C8.23911 0.423811 6.0913 0.423811 3.94409 0.423811C3.59865 0.423811 3.48471 0.537629 3.4835 0.877893C3.48289 1.07693 3.4835 1.27536 3.4835 1.49466C3.37926 1.49466 3.29805 1.49466 3.21684 1.49466C2.48353 1.49466 1.75022 1.49406 1.01631 1.49525C0.730862 1.49585 0.573897 1.62933 0.579957 1.86114C0.586018 2.08282 0.73874 2.20677 1.01449 2.20677C2.41323 2.20736 3.81198 2.20736 5.21132 2.20677C5.50283 2.20677 5.65858 2.08163 5.65919 1.85161C5.65979 1.62218 5.50344 1.49585 5.21314 1.49525C4.88285 1.49406 4.55256 1.49525 4.22469 1.49525C4.22469 1.36117 4.22469 1.25451 4.22469 1.15499C7.6161 1.15499 10.9911 1.15499 14.3607 1.15499C14.3607 3.892 14.3607 6.61112 14.3607 9.33502C10.973 9.33502 7.59791 9.33502 4.2253 9.33502C4.2253 9.09487 4.2253 8.86902 4.2253 8.63364C4.32529 8.63364 4.40771 8.63364 4.49013 8.63364C4.99679 8.63364 5.50344 8.63662 6.01009 8.63185C6.23129 8.63006 6.37553 8.493 6.38523 8.29576C6.39492 8.09672 6.25493 7.92629 6.04766 7.9251C5.18587 7.91855 4.32347 7.91974 3.46168 7.92451C3.28048 7.9251 3.16412 8.03475 3.12836 8.20458C3.0926 8.37382 3.15745 8.51207 3.31926 8.59431C3.37017 8.62053 3.42593 8.6384 3.47562 8.65867C3.47562 8.89047 3.47562 9.11215 3.47562 9.33145C3.18048 9.43037 3.12169 9.50903 3.12048 9.80043C3.11988 10.1055 3.11927 10.41 3.12048 10.7151C3.12169 11.2026 3.41259 11.488 3.90894 11.4892C4.24711 11.4904 4.58528 11.4892 4.86346 11.4892C4.99618 11.8736 5.11436 12.2156 5.23375 12.5619C5.04224 12.5619 4.83861 12.5607 4.63437 12.5625C4.36468 12.5648 4.21014 12.6953 4.21014 12.9176C4.21014 13.1405 4.36468 13.2734 4.63377 13.274C6.04766 13.2752 7.46156 13.2752 8.87545 13.274C9.13968 13.274 9.29483 13.1316 9.28877 12.9075C9.28271 12.6936 9.1318 12.566 8.87605 12.5631C8.66273 12.5607 8.4494 12.5625 8.2282 12.5625C8.31971 12.3688 8.41061 12.2139 8.46758 12.047C8.52637 11.8742 8.55182 11.6901 8.59364 11.5023C11.4784 11.5023 14.3704 11.5023 17.2097 11.5023C17.3376 11.873 17.4564 12.2156 17.574 12.5565C17.5764 12.5559 17.5612 12.5613 17.5467 12.5613C17.1231 12.5619 16.7 12.5619 16.2764 12.5631C15.9837 12.5637 15.828 12.6864 15.8261 12.9158C15.8243 13.1459 15.9813 13.2746 16.2698 13.2752C17.0637 13.2764 17.8576 13.2817 18.6515 13.2722C18.9666 13.2686 19.2933 13.2758 19.5939 13.2001C20.3775 13.0028 20.8151 12.4004 20.9199 11.4553C20.9454 11.4422 20.9714 11.4267 20.9993 11.4153C21.6775 11.1484 21.9938 10.6919 21.9944 9.97801C21.995 9.48698 21.9787 8.99595 21.9981 8.50552C22.0284 7.72309 21.7035 7.14685 21.0381 6.7315ZM18.3697 3.2943C18.6473 3.32052 18.8642 3.43553 18.9569 3.67211C19.2733 4.47777 19.5684 5.29178 19.8842 6.13559C19.5745 6.13559 19.3103 6.14512 19.0472 6.13321C18.7127 6.11831 18.3891 5.86505 18.3782 5.54445C18.3521 4.79778 18.3697 4.04991 18.3697 3.2943ZM5.10951 10.7128C5.08345 10.7467 5.02345 10.7729 4.9786 10.7735C4.61013 10.7783 4.24166 10.7765 3.8544 10.7765C3.8544 10.5251 3.8544 10.3052 3.8544 10.0734C4.43983 10.0734 5.01497 10.0734 5.57859 10.0734C5.42223 10.2885 5.2695 10.5036 5.10951 10.7128ZM6.74037 12.5601C6.15493 12.5535 5.65858 12.0595 5.6604 11.4862C5.66283 10.91 6.16038 10.4208 6.74643 10.419C7.33065 10.4172 7.83185 10.9052 7.83791 11.4815C7.84336 12.0637 7.33186 12.5666 6.74037 12.5601ZM19.1024 12.5601C18.5133 12.5684 17.9982 12.0649 18.0024 11.4839C18.0061 10.9076 18.5048 10.419 19.0903 10.419C19.6751 10.4184 20.1751 10.9076 20.1793 11.4833C20.1836 12.0577 19.689 12.5517 19.1024 12.5601ZM21.269 10.0245C21.2617 10.382 21.0944 10.6025 20.7532 10.7271C20.6533 10.5888 20.5642 10.441 20.4508 10.3135C19.6303 9.39223 18.1558 9.53346 17.5231 10.5983C17.4424 10.7336 17.3631 10.7795 17.2079 10.7795C14.3504 10.7753 11.4923 10.7753 8.63485 10.7795C8.48152 10.7795 8.39728 10.7384 8.31729 10.6007C8.21002 10.4166 8.05426 10.2599 7.89427 10.0608C7.98881 10.0608 8.06881 10.0608 8.14881 10.0608C10.3033 10.0608 12.4584 10.0608 14.6128 10.0608C14.988 10.0608 15.0971 9.95357 15.0971 9.58471C15.0971 7.57709 15.0971 5.56948 15.0971 3.56186C15.0971 3.47426 15.0971 3.38726 15.0971 3.28894C15.9473 3.28894 16.7764 3.28894 17.6394 3.28894C17.6394 3.36521 17.6394 3.44328 17.6394 3.52134C17.6394 4.1536 17.637 4.78526 17.64 5.41752C17.6437 6.22259 18.2727 6.84174 19.0897 6.84711C19.3921 6.84889 19.6951 6.83995 19.9969 6.85306C20.0654 6.85604 20.1351 6.92398 20.1963 6.97165C20.3769 7.11288 20.5442 7.27199 20.7339 7.40011C21.0932 7.64264 21.2757 7.96741 21.2708 8.39587C21.2684 8.60384 21.2702 8.81241 21.2702 9.02038C21.2702 9.35528 21.2757 9.69018 21.269 10.0245Z" fill="white"/>
<path d="M4.5532 7.56041C4.7841 7.55922 4.93258 7.41322 4.93258 7.20644C4.93319 6.99907 4.78532 6.85843 4.55441 6.85069C4.44957 6.84711 4.34412 6.85009 4.20715 6.85009C4.20715 6.74164 4.20715 6.66119 4.20715 6.58074C4.20715 5.4211 4.20715 4.26087 4.20715 3.10123C4.20715 3.04939 4.20836 2.99695 4.20655 2.94511C4.19806 2.71568 4.0611 2.56968 3.8508 2.5667C3.6302 2.56313 3.48414 2.71151 3.48414 2.95524C3.48172 4.16731 3.48293 5.37939 3.48293 6.59087C3.48293 6.67013 3.48293 6.74998 3.48293 6.83996C3.42415 6.84413 3.38778 6.8489 3.35142 6.8489C2.68599 6.8495 2.02056 6.8483 1.35573 6.85009C1.09937 6.85069 0.949074 6.98 0.942408 7.19393C0.935741 7.41918 1.08968 7.55922 1.35452 7.56101C1.71753 7.56339 2.08055 7.56161 2.44297 7.56161C3.14719 7.5622 3.85019 7.56399 4.5532 7.56041Z" fill="white"/>
<path d="M9.2718 4.32702C9.1815 3.96054 8.8603 3.66795 8.49607 3.64232C8.27062 3.62683 8.04215 3.62981 7.81609 3.63994C7.61549 3.64947 7.48338 3.76806 7.48095 3.96411C7.47186 4.70006 7.47065 5.4366 7.48216 6.17255C7.48519 6.36682 7.62519 6.47825 7.827 6.48838C8.01972 6.49851 8.17487 6.36443 8.1985 6.17195C8.20638 6.10938 8.20517 6.04562 8.2082 5.98484C8.23123 5.98305 8.24214 5.97888 8.24517 5.98245C8.37001 6.10104 8.49365 6.22141 8.6191 6.34C8.80939 6.51937 9.02211 6.53784 9.18029 6.38946C9.34271 6.2375 9.32635 6.01583 9.1306 5.82335C8.98757 5.68212 8.83606 5.54923 8.67364 5.39906C8.77 5.34126 8.83424 5.30491 8.89545 5.26439C9.2009 5.06356 9.35726 4.67205 9.2718 4.32702ZM8.53304 4.59876C8.44516 4.65775 8.34092 4.69291 8.21244 4.75071C8.21244 4.58684 8.21244 4.48017 8.21244 4.3163C8.33305 4.36337 8.43789 4.39198 8.52698 4.4462C8.55304 4.46289 8.55728 4.58267 8.53304 4.59876Z" fill="white"/>
<path d="M11.0875 4.3479C11.3184 4.34313 11.4663 4.20011 11.4669 3.99333C11.4669 3.78655 11.319 3.64174 11.0887 3.63817C10.7409 3.6334 10.3936 3.634 10.0457 3.63817C9.78998 3.64115 9.65665 3.77225 9.65544 4.02551C9.65241 4.71676 9.65241 5.40802 9.65544 6.09927C9.65665 6.36207 9.79119 6.4878 10.0651 6.49019C10.3978 6.49317 10.73 6.49317 11.0627 6.49019C11.313 6.4878 11.4651 6.35194 11.4663 6.13681C11.4675 5.92169 11.3154 5.78284 11.0675 5.77927C10.8433 5.77629 10.619 5.77867 10.3936 5.77867C10.3936 5.64578 10.3936 5.53912 10.3936 5.42828C10.6796 5.39431 11.0748 5.51945 11.0924 5.08682C11.1124 4.59877 10.6742 4.74239 10.3863 4.69293C10.3863 4.5797 10.3863 4.4784 10.3863 4.34909C10.636 4.34909 10.8621 4.35266 11.0875 4.3479Z" fill="white"/>
<path d="M13.2511 4.34849C13.4984 4.34432 13.6487 4.20249 13.645 3.98558C13.6408 3.7794 13.4929 3.64115 13.2584 3.63817C12.9105 3.634 12.5633 3.6334 12.2154 3.63817C11.9712 3.64174 11.8354 3.77225 11.8336 4.01121C11.8299 4.70961 11.8299 5.40861 11.8336 6.10702C11.8348 6.35789 11.9705 6.48721 12.2287 6.48959C12.5614 6.49317 12.8935 6.49197 13.2263 6.49019C13.4923 6.4884 13.6481 6.35193 13.6444 6.12907C13.6414 5.90739 13.4875 5.78105 13.2148 5.77927C12.9984 5.77748 12.782 5.77867 12.5663 5.77867C12.5663 5.64578 12.5663 5.54448 12.5663 5.41993C12.6905 5.41993 12.7887 5.42172 12.8869 5.41934C13.1341 5.41338 13.2851 5.27334 13.2814 5.05703C13.2778 4.85025 13.1299 4.71498 12.896 4.70842C12.7863 4.70544 12.676 4.70782 12.5669 4.70782C12.5669 4.57434 12.5669 4.47244 12.5669 4.34909C12.8014 4.34909 13.0263 4.35207 13.2511 4.34849Z" fill="white"/>
<path d="M5.29986 4.02132C5.29623 4.71258 5.29683 5.40383 5.29926 6.09508C5.29986 6.3406 5.44107 6.49017 5.65985 6.49077C5.87863 6.49136 6.01863 6.34179 6.02226 6.09687C6.02529 5.88234 6.02287 5.66722 6.02287 5.43899C6.63679 5.37523 6.76103 5.31742 6.74467 5.07012C6.71315 4.60174 6.32044 4.7376 6.03742 4.70006C6.03742 4.5779 6.03742 4.47123 6.03742 4.34967C6.26953 4.34967 6.4871 4.35205 6.70527 4.34907C6.95678 4.34609 7.1089 4.21261 7.11132 3.99808C7.11435 3.78236 6.96284 3.64113 6.71436 3.63815C6.37437 3.63458 6.03438 3.63458 5.6944 3.63815C5.43562 3.64054 5.30107 3.76985 5.29986 4.02132Z" fill="white"/>
<path d="M11.1294 12.5648C10.873 12.5553 10.6154 12.5559 10.3585 12.5648C10.1579 12.572 10.0215 12.7204 10.0179 12.9105C10.0142 13.1101 10.1548 13.2603 10.3663 13.2722C10.487 13.2793 10.6082 13.2734 10.7294 13.2734C10.8578 13.2734 10.9869 13.2787 11.1148 13.2722C11.3275 13.2609 11.4687 13.1131 11.4669 12.9134C11.4651 12.7233 11.3287 12.572 11.1294 12.5648Z" fill="white"/>
<path d="M6.55495 2.20622C6.63071 2.20562 6.70646 2.21158 6.78161 2.20502C6.97797 2.18655 7.11251 2.03698 7.11069 1.84688C7.10887 1.65679 6.97251 1.5102 6.77252 1.49768C6.63677 1.48934 6.50041 1.48934 6.36465 1.49768C6.16406 1.5096 6.0277 1.65441 6.02467 1.8445C6.02103 2.04413 6.16224 2.19191 6.37375 2.20622C6.43374 2.21039 6.49495 2.20681 6.55495 2.20622Z" fill="white"/>
</svg>
