<svg width="74" height="44" viewBox="0 0 74 44" fill="none" xmlns="http://www.w3.org/2000/svg">
<path d="M48.0233 0.00390625C49.2413 0.00390625 49.6227 0.387298 49.6248 1.60742C49.629 3.43644 49.6313 5.26766 49.6375 7.09668C49.6376 7.14342 49.6662 7.18827 49.7137 7.32422H60.5106C62.8514 7.32626 64.6049 8.52857 65.4149 10.7061C66.6184 13.9426 67.7927 17.1916 69.0252 20.418C69.1909 20.8538 69.5369 21.3141 69.9305 21.5605C72.2051 22.9803 73.3153 24.9505 73.2117 27.625C73.1455 29.3013 73.2011 30.9799 73.199 32.6582C73.1969 35.0983 72.1157 36.6588 69.7977 37.5713C69.7025 37.61 69.6131 37.6632 69.5262 37.708C69.1677 40.9383 67.6724 42.9977 64.994 43.6719C63.9665 43.9306 62.8495 43.9057 61.7723 43.918C59.0587 43.9506 56.3452 43.9328 53.6317 43.9287C52.6456 43.9267 52.1089 43.4864 52.1151 42.7002C52.1213 41.916 52.6535 41.4962 53.6541 41.4941C55.1021 41.4901 56.548 41.4903 57.9959 41.4883C58.0449 41.4883 58.096 41.4703 58.0897 41.4717C57.6878 40.3066 57.2816 39.1351 56.8445 37.8682H27.3924C27.2495 38.5098 27.1627 39.1398 26.9617 39.7305C26.767 40.3007 26.4561 40.8303 26.1434 41.4922C26.8995 41.4922 27.629 41.486 28.3582 41.4941C29.2324 41.5043 29.7486 41.9406 29.7693 42.6719C29.7899 43.4375 29.2592 43.9238 28.3563 43.9238C23.5233 43.9279 18.6902 43.9279 13.8572 43.9238C12.9375 43.9218 12.409 43.4679 12.409 42.7061C12.4091 41.9464 12.9374 41.5003 13.8592 41.4922C14.5573 41.4861 15.2534 41.4902 15.908 41.4902C15.4999 40.3068 15.0961 39.1371 14.6424 37.8232C13.6916 37.8232 12.5356 37.8273 11.3797 37.8232C9.68309 37.8192 8.68854 36.8439 8.68439 35.1777C8.68024 34.1348 8.68232 33.0937 8.68439 32.0508C8.68856 31.055 8.88964 30.7863 9.89825 30.4482V28.1484C9.7285 28.0792 9.53799 28.0182 9.36407 27.9287C8.81096 27.6476 8.58951 27.1742 8.71173 26.5957C8.83405 26.0155 9.23135 25.6408 9.8504 25.6387C12.7962 25.6224 15.7445 25.6182 18.6902 25.6406C19.3987 25.6448 19.8767 26.2279 19.8436 26.9082C19.8102 27.5822 19.3173 28.0505 18.5613 28.0566C16.8296 28.0729 15.0977 28.0625 13.366 28.0625H12.4608V30.46H47.1063V2.49902H12.4588V3.66211C13.5795 3.66211 14.7087 3.65804 15.8377 3.66211C16.8297 3.66419 17.364 4.09599 17.3621 4.87988C17.3601 5.66614 16.8273 6.09473 15.8309 6.09473C11.0479 6.09676 6.26703 6.09676 1.48615 6.09473C0.54365 6.09473 0.0215823 5.67072 0.000793457 4.91309C-0.0199223 4.12072 0.516294 3.66415 1.492 3.66211C4.00055 3.65804 6.50702 3.66016 9.01349 3.66016H9.9256C9.9256 2.91059 9.92353 2.23208 9.9256 1.55176C9.92979 0.388845 10.3191 0 11.4998 0H33.5203C38.3553 0 43.1883 -0.000167346 48.0233 0.00390625ZM33.4256 41.5C34.3038 41.4695 35.1842 41.4674 36.0604 41.5C36.7418 41.5244 37.2082 42.0418 37.2147 42.6914C37.2209 43.3738 36.7377 43.8793 36.0106 43.918C35.5735 43.9404 35.1323 43.9219 34.6932 43.9219C34.2789 43.9219 33.8642 43.9424 33.452 43.918C32.7291 43.8771 32.2491 43.3639 32.2615 42.6816C32.274 42.0319 32.7399 41.5244 33.4256 41.5ZM21.0789 34.165C19.0757 34.1711 17.3743 35.8438 17.366 37.8135C17.3598 39.773 19.0573 41.462 21.0584 41.4844C23.0801 41.5065 24.828 39.7868 24.8094 37.7969C24.7885 35.8274 23.0757 34.1591 21.0789 34.165ZM63.2723 34.165C61.2712 34.1651 59.566 35.836 59.5535 37.8057C59.5392 39.7915 61.3008 41.5129 63.3143 41.4844C65.3192 41.4556 67.0092 39.767 66.9949 37.8037C66.9804 35.836 65.2713 34.163 63.2723 34.165ZM49.6229 31.3135C49.6229 32.5743 49.2499 32.9414 47.9676 32.9414H25.0018C25.5485 33.6216 26.0814 34.1569 26.4481 34.7861C26.7215 35.2567 27.0099 35.3975 27.534 35.3975C37.3012 35.3832 47.0705 35.3832 56.8377 35.3975C57.368 35.3975 57.6394 35.2406 57.9149 34.7783C60.0775 31.1384 65.1177 30.6559 67.9227 33.8047C68.3101 34.2406 68.615 34.7462 68.9568 35.2188C70.123 34.7931 70.6945 34.0393 70.7195 32.8174C70.7423 31.6747 70.7235 30.5295 70.7234 29.3848C70.7234 28.6739 70.7181 27.9609 70.7264 27.25C70.743 25.7855 70.1188 24.6757 68.8904 23.8467C68.242 23.4087 67.6699 22.8646 67.0526 22.3818C66.8435 22.219 66.6058 21.987 66.3719 21.9766C65.3402 21.9317 64.304 21.9622 63.2703 21.9561C60.4779 21.9377 58.3277 19.8212 58.3152 17.0693C58.3049 14.9082 58.3133 12.7491 58.3133 10.5879V9.79297H49.6229V31.3135ZM11.1932 35.3877C12.5169 35.3877 13.7765 35.3932 15.0359 35.377C15.1891 35.3749 15.394 35.2859 15.4832 35.1699C16.03 34.455 16.5523 33.7196 17.0867 32.9844H11.1932V35.3877ZM11.1805 7.32422C11.8993 7.3344 12.3673 7.83394 12.3963 8.61816C12.4025 8.79523 12.3992 8.9743 12.3992 9.15137V21.9658C12.8672 21.9658 13.2275 21.9556 13.5858 21.9678C14.375 21.9943 14.8808 22.4757 14.8787 23.1846C14.8785 23.8911 14.3709 24.3904 13.5818 24.3945C11.1788 24.4068 8.77515 24.4005 6.36798 24.3984C5.12945 24.3984 3.88885 24.4046 2.64825 24.3965C1.74306 24.3904 1.21639 23.9114 1.23907 23.1416C1.26186 22.4103 1.77589 21.9679 2.65216 21.9658C4.92454 21.9597 7.199 21.964 9.47345 21.9619C9.59774 21.9619 9.7227 21.9459 9.92365 21.9316V21.0801C9.92365 16.939 9.91926 12.7955 9.92755 8.65234C9.92769 7.81952 10.4267 7.31211 11.1805 7.32422ZM60.8094 9.81152C60.8094 12.3943 60.7496 14.9507 60.8387 17.5029C60.876 18.5988 61.9823 19.4647 63.1258 19.5156C64.0247 19.5563 64.9278 19.5234 65.9861 19.5234C64.9069 16.6393 63.8975 13.8573 62.8162 11.1035C62.4993 10.2949 61.7581 9.90116 60.8094 9.81152ZM22.994 14.6074C23.1305 14.6074 23.2333 14.6439 23.3016 14.7168C23.3744 14.7851 23.4109 14.8856 23.4109 15.0176C23.4109 15.1539 23.3742 15.2583 23.3016 15.3311C23.2333 15.3994 23.1305 15.4336 22.994 15.4336H21.1639V16.6084H22.8436C22.9802 16.6084 23.0852 16.6449 23.158 16.7178C23.2309 16.7861 23.2674 16.8865 23.2674 17.0186C23.2673 17.1503 23.2307 17.2524 23.158 17.3252C23.0852 17.398 22.9802 17.4346 22.8436 17.4346H21.1639V18.9238C21.1638 19.2971 20.9903 19.4834 20.6443 19.4834C20.4716 19.4833 20.3375 19.4354 20.242 19.3398C20.1511 19.2443 20.1053 19.1058 20.1053 18.9238V15.1602C20.1054 14.9828 20.1533 14.8465 20.2488 14.751C20.3444 14.6554 20.4807 14.6075 20.658 14.6074H22.994ZM27.2918 14.6074C27.8291 14.6074 28.2436 14.7375 28.535 14.9971C28.8262 15.2566 28.9725 15.6187 28.9725 16.083C28.9724 16.3833 28.9062 16.6429 28.7742 16.8613C28.6422 17.0799 28.4504 17.2478 28.2 17.3662C28.1105 17.4093 28.0126 17.4413 27.908 17.4688C27.9858 17.4925 28.0582 17.5262 28.1248 17.5713C28.2705 17.6623 28.3961 17.8039 28.5008 17.9951L28.9246 18.7803C28.9883 18.894 29.018 19.006 29.0135 19.1152C29.0089 19.2242 28.9675 19.3127 28.8904 19.3809C28.813 19.4492 28.6989 19.4834 28.5486 19.4834C28.3984 19.4834 28.2751 19.4514 28.1795 19.3877C28.0887 19.324 28.0071 19.2264 27.9344 19.0947L27.2781 17.8857C27.2098 17.7583 27.1254 17.6715 27.0252 17.626C26.9297 17.5806 26.8116 17.5576 26.6707 17.5576H26.1512V18.9375C26.1512 19.1104 26.1055 19.2443 26.0145 19.3398C25.928 19.4354 25.7987 19.4834 25.6258 19.4834C25.4528 19.4834 25.3204 19.4355 25.2293 19.3398C25.1385 19.2443 25.0926 19.1102 25.0926 18.9375V15.1465C25.0927 14.9692 25.1384 14.8351 25.2293 14.7441C25.3249 14.6531 25.4596 14.6074 25.6326 14.6074H27.2918ZM33.8777 14.6074C34.0143 14.6074 34.1171 14.6439 34.1854 14.7168C34.2581 14.7851 34.2947 14.8857 34.2947 15.0176C34.2947 15.1538 34.258 15.2583 34.1854 15.3311C34.1171 15.3994 34.0143 15.4336 33.8777 15.4336H31.952V16.5605H33.7205C33.8617 16.5605 33.9667 16.5971 34.035 16.6699C34.1078 16.7382 34.1443 16.841 34.1443 16.9775C34.1443 17.1138 34.1076 17.2182 34.035 17.291C33.9667 17.3593 33.8617 17.3936 33.7205 17.3936H31.952V18.5957H33.8777C34.0143 18.5957 34.1171 18.6322 34.1854 18.7051C34.2581 18.7734 34.2947 18.8739 34.2947 19.0059C34.2947 19.1421 34.2579 19.2465 34.1854 19.3193C34.1171 19.3876 34.0143 19.4219 33.8777 19.4219H31.494C31.3168 19.4218 31.1803 19.3746 31.0848 19.2793C30.9892 19.1837 30.9412 19.0467 30.9412 18.8691V15.1602C30.9413 14.9828 30.9892 14.8465 31.0848 14.751C31.1803 14.6555 31.3166 14.6075 31.494 14.6074H33.8777ZM39.1053 14.6074C39.2419 14.6074 39.3446 14.6439 39.4129 14.7168C39.4856 14.7851 39.5223 14.8856 39.5223 15.0176C39.5222 15.1538 39.4855 15.2583 39.4129 15.3311C39.3446 15.3994 39.2419 15.4336 39.1053 15.4336H37.1795V16.5605H38.9481C39.0892 16.5605 39.1942 16.5971 39.2625 16.6699C39.3353 16.7382 39.3719 16.841 39.3719 16.9775C39.3718 17.1138 39.3352 17.2182 39.2625 17.291C39.1942 17.3593 39.0892 17.3936 38.9481 17.3936H37.1795V18.5957H39.1053C39.2419 18.5957 39.3446 18.6322 39.4129 18.7051C39.4857 18.7734 39.5223 18.8739 39.5223 19.0059C39.5222 19.1421 39.4855 19.2465 39.4129 19.3193C39.3446 19.3876 39.2419 19.4219 39.1053 19.4219H36.7215C36.5443 19.4218 36.4078 19.3746 36.3123 19.2793C36.2167 19.1837 36.1688 19.0467 36.1688 18.8691V15.1602C36.1688 14.9828 36.2168 14.8465 36.3123 14.751C36.4079 14.6555 36.5441 14.6075 36.7215 14.6074H39.1053ZM26.1512 16.793H27.1004C27.3827 16.793 27.595 16.7359 27.7361 16.6221C27.8816 16.5083 27.9548 16.3377 27.9549 16.1104C27.9549 15.8873 27.8818 15.7183 27.7361 15.6045C27.595 15.4907 27.3827 15.4336 27.1004 15.4336H26.1512V16.793ZM19.7733 3.66992C20.2373 3.64141 20.7038 3.64141 21.1678 3.66992C21.8514 3.7127 22.3178 4.21448 22.324 4.86426C22.3301 5.51385 21.87 6.02469 21.199 6.08789C20.9422 6.1103 20.6826 6.08976 20.4236 6.0918C20.2187 6.09385 20.0094 6.10604 19.8045 6.0918C19.0817 6.04281 18.5987 5.53776 18.6111 4.85547C18.6217 4.20598 19.0879 3.71081 19.7733 3.66992Z" fill="#AE278B"/>
</svg>
