<svg width="23" height="26" viewBox="0 0 23 26" fill="none" xmlns="http://www.w3.org/2000/svg">
<mask id="path-1-outside-1_1_945" maskUnits="userSpaceOnUse" x="0" y="0" width="23" height="26" fill="black">
<rect fill="white" width="23" height="26"/>
<path d="M17.04 13.6543C17.8731 13.6396 18.67 13.8073 19.4131 14.1592C20.6179 14.7299 21.3201 15.6713 21.8379 16.7451C22.2274 17.5527 22.4409 18.4046 22.5781 19.2705C22.7364 20.2643 22.8385 21.2633 22.707 22.2656C22.4861 23.9514 21.2372 25.1598 19.3711 25.5186C19.1751 25.5565 18.9773 25.5893 18.7813 25.625H4.96583C4.78578 25.5927 4.6055 25.5595 4.42481 25.5283C2.40925 25.1797 1.00128 23.7096 1.00001 21.8906C0.999369 21.0418 1.04935 20.1885 1.15723 19.3447C1.30345 18.2034 1.63788 17.1014 2.25977 16.0791C2.99592 14.8688 4.06429 14.047 5.60547 13.7461C6.40864 13.5891 7.16549 13.5935 7.84864 14.083C8.11802 14.2757 8.42519 14.4281 8.72266 14.5879C9.56095 15.0395 10.4669 15.3316 11.4463 15.3985C12.7884 15.4903 14.0108 15.1493 15.1397 14.5186C15.513 14.3101 15.873 14.0805 16.2598 13.8936C16.4998 13.7774 16.777 13.6588 17.04 13.6543ZM17.5488 15.044C17.2762 14.9799 17.0271 15.0503 16.7852 15.1953C15.984 15.6752 15.172 16.1321 14.2432 16.4131C12.0015 17.092 9.90202 16.7973 7.9004 15.7422C7.63037 15.6 7.35269 15.4615 7.11329 15.2842C6.71487 14.9901 6.29062 14.9993 5.82325 15.0996C4.78767 15.3223 4.11558 15.921 3.62012 16.7178C3.07443 17.5954 2.81499 18.5525 2.67774 19.5332C2.58452 20.1968 2.53651 20.8694 2.52247 21.5381C2.48883 23.2362 3.55219 24.2263 5.46876 24.2598C7.13315 24.2887 8.79851 24.2684 10.4629 24.2695H11.8643C13.9201 24.2695 15.9754 24.2697 18.0313 24.2686C18.6212 24.2686 19.203 24.2128 19.7393 23.9766C20.7205 23.5448 21.1894 22.8027 21.21 21.8633C21.2444 20.2897 21.0954 18.7288 20.4072 17.2549C20.0458 16.4814 19.5659 15.7603 18.6777 15.3682C18.3274 15.2136 17.9311 15.134 17.5488 15.044ZM12.0186 1.00001C15.5652 0.992967 18.4014 3.78854 18.4053 7.29591C18.4092 10.7988 15.5754 13.6166 12.041 13.6231C8.52233 13.6295 5.66008 10.7959 5.65919 7.3047C5.65789 3.82118 8.49604 1.0073 12.0186 1.00001ZM12.044 2.53322C9.377 2.52489 7.22818 4.65353 7.22559 7.30568C7.22373 9.96545 9.36054 12.0525 12.041 12.0762C14.6051 12.0986 16.8765 9.96245 16.8565 7.29494C16.8369 4.65267 14.708 2.54173 12.044 2.53322Z"/>
</mask>
<path d="M17.04 13.6543C17.8731 13.6396 18.67 13.8073 19.4131 14.1592C20.6179 14.7299 21.3201 15.6713 21.8379 16.7451C22.2274 17.5527 22.4409 18.4046 22.5781 19.2705C22.7364 20.2643 22.8385 21.2633 22.707 22.2656C22.4861 23.9514 21.2372 25.1598 19.3711 25.5186C19.1751 25.5565 18.9773 25.5893 18.7813 25.625H4.96583C4.78578 25.5927 4.6055 25.5595 4.42481 25.5283C2.40925 25.1797 1.00128 23.7096 1.00001 21.8906C0.999369 21.0418 1.04935 20.1885 1.15723 19.3447C1.30345 18.2034 1.63788 17.1014 2.25977 16.0791C2.99592 14.8688 4.06429 14.047 5.60547 13.7461C6.40864 13.5891 7.16549 13.5935 7.84864 14.083C8.11802 14.2757 8.42519 14.4281 8.72266 14.5879C9.56095 15.0395 10.4669 15.3316 11.4463 15.3985C12.7884 15.4903 14.0108 15.1493 15.1397 14.5186C15.513 14.3101 15.873 14.0805 16.2598 13.8936C16.4998 13.7774 16.777 13.6588 17.04 13.6543ZM17.5488 15.044C17.2762 14.9799 17.0271 15.0503 16.7852 15.1953C15.984 15.6752 15.172 16.1321 14.2432 16.4131C12.0015 17.092 9.90202 16.7973 7.9004 15.7422C7.63037 15.6 7.35269 15.4615 7.11329 15.2842C6.71487 14.9901 6.29062 14.9993 5.82325 15.0996C4.78767 15.3223 4.11558 15.921 3.62012 16.7178C3.07443 17.5954 2.81499 18.5525 2.67774 19.5332C2.58452 20.1968 2.53651 20.8694 2.52247 21.5381C2.48883 23.2362 3.55219 24.2263 5.46876 24.2598C7.13315 24.2887 8.79851 24.2684 10.4629 24.2695H11.8643C13.9201 24.2695 15.9754 24.2697 18.0313 24.2686C18.6212 24.2686 19.203 24.2128 19.7393 23.9766C20.7205 23.5448 21.1894 22.8027 21.21 21.8633C21.2444 20.2897 21.0954 18.7288 20.4072 17.2549C20.0458 16.4814 19.5659 15.7603 18.6777 15.3682C18.3274 15.2136 17.9311 15.134 17.5488 15.044ZM12.0186 1.00001C15.5652 0.992967 18.4014 3.78854 18.4053 7.29591C18.4092 10.7988 15.5754 13.6166 12.041 13.6231C8.52233 13.6295 5.66008 10.7959 5.65919 7.3047C5.65789 3.82118 8.49604 1.0073 12.0186 1.00001ZM12.044 2.53322C9.377 2.52489 7.22818 4.65353 7.22559 7.30568C7.22373 9.96545 9.36054 12.0525 12.041 12.0762C14.6051 12.0986 16.8765 9.96245 16.8565 7.29494C16.8369 4.65267 14.708 2.54173 12.044 2.53322Z" fill="black"/>
<path d="M17.04 13.6543L17.0435 13.8543L17.0436 13.8543L17.04 13.6543ZM19.4131 14.1592L19.4987 13.9784L19.4987 13.9784L19.4131 14.1592ZM21.8379 16.7451L21.6577 16.832L21.6578 16.832L21.8379 16.7451ZM22.5781 19.2705L22.3806 19.3018L22.3806 19.302L22.5781 19.2705ZM22.707 22.2656L22.5087 22.2396L22.5087 22.2397L22.707 22.2656ZM19.3711 25.5186L19.3333 25.3222L19.3331 25.3222L19.3711 25.5186ZM18.7813 25.625V25.825H18.7993L18.8171 25.8218L18.7813 25.625ZM4.96583 25.625L4.93051 25.8219L4.94803 25.825H4.96583V25.625ZM4.42481 25.5283L4.39073 25.7254L4.39081 25.7254L4.42481 25.5283ZM1.00001 21.8906L1.20001 21.8905L1.20001 21.8905L1.00001 21.8906ZM1.15723 19.3447L0.958854 19.3193L0.958848 19.3194L1.15723 19.3447ZM2.25977 16.0791L2.43064 16.1831L2.43065 16.183L2.25977 16.0791ZM5.60547 13.7461L5.6438 13.9424L5.64384 13.9424L5.60547 13.7461ZM7.84864 14.083L7.73215 14.2456L7.73231 14.2457L7.84864 14.083ZM8.72266 14.5879L8.81752 14.4118L8.81729 14.4117L8.72266 14.5879ZM11.4463 15.3985L11.4599 15.1989L11.4599 15.1989L11.4463 15.3985ZM15.1397 14.5186L15.0422 14.3439L15.0421 14.344L15.1397 14.5186ZM16.2598 13.8936L16.3468 14.0736L16.3469 14.0736L16.2598 13.8936ZM17.5488 15.044L17.5947 14.8493L17.5946 14.8493L17.5488 15.044ZM16.7852 15.1953L16.8879 15.3669L16.888 15.3669L16.7852 15.1953ZM14.2432 16.4131L14.1852 16.2217L14.1852 16.2217L14.2432 16.4131ZM7.9004 15.7422L7.99366 15.5653L7.99359 15.5652L7.9004 15.7422ZM7.11329 15.2842L7.23233 15.1235L7.23207 15.1233L7.11329 15.2842ZM5.82325 15.0996L5.78128 14.9041L5.7812 14.9041L5.82325 15.0996ZM3.62012 16.7178L3.45028 16.6122L3.45028 16.6122L3.62012 16.7178ZM2.67774 19.5332L2.8758 19.561L2.87581 19.5609L2.67774 19.5332ZM2.52247 21.5381L2.32251 21.5339L2.32251 21.5341L2.52247 21.5381ZM5.46876 24.2598L5.46527 24.4597H5.46528L5.46876 24.2598ZM10.4629 24.2695L10.4628 24.4695H10.4629V24.2695ZM11.8643 24.2695V24.0695V24.2695ZM18.0313 24.2686V24.0686H18.0311L18.0313 24.2686ZM19.7393 23.9766L19.6587 23.7935L19.6586 23.7936L19.7393 23.9766ZM21.21 21.8633L21.01 21.8589V21.8589L21.21 21.8633ZM20.4072 17.2549L20.5885 17.1703L20.5884 17.1702L20.4072 17.2549ZM18.6777 15.3682L18.7585 15.1852L18.7585 15.1852L18.6777 15.3682ZM12.0186 1.00001L12.0182 0.800014L12.0181 0.800014L12.0186 1.00001ZM18.4053 7.29591L18.2053 7.29613V7.29613L18.4053 7.29591ZM12.041 13.6231L12.0407 13.4231H12.0407L12.041 13.6231ZM5.65919 7.3047L5.85919 7.30465V7.30463L5.65919 7.3047ZM12.044 2.53322L12.0446 2.33322H12.0446L12.044 2.53322ZM7.22559 7.30568L7.02559 7.30548V7.30554L7.22559 7.30568ZM12.041 12.0762L12.0393 12.2762H12.0393L12.041 12.0762ZM16.8565 7.29494L16.6565 7.29642V7.29644L16.8565 7.29494ZM17.04 13.6543L17.0436 13.8543C17.8468 13.8401 18.613 14.0016 19.3275 14.34L19.4131 14.1592L19.4987 13.9784C18.727 13.613 17.8995 13.4391 17.0365 13.4543L17.04 13.6543ZM19.4131 14.1592L19.3275 14.3399C20.4762 14.884 21.1513 15.7817 21.6577 16.832L21.8379 16.7451L22.018 16.6583C21.4889 15.5609 20.7596 14.5757 19.4987 13.9784L19.4131 14.1592ZM21.8379 16.7451L21.6578 16.832C22.0358 17.6158 22.2451 18.447 22.3806 19.3018L22.5781 19.2705L22.7757 19.2392C22.6366 18.3622 22.419 17.4895 22.018 16.6582L21.8379 16.7451ZM22.5781 19.2705L22.3806 19.302C22.538 20.2903 22.6364 21.2664 22.5087 22.2396L22.707 22.2656L22.9053 22.2917C23.0406 21.2603 22.9348 20.2384 22.7756 19.2391L22.5781 19.2705ZM22.707 22.2656L22.5087 22.2397C22.3008 23.8262 21.1293 24.9769 19.3333 25.3222L19.3711 25.5186L19.4089 25.715C21.3452 25.3427 22.6714 24.0766 22.9053 22.2916L22.707 22.2656ZM19.3711 25.5186L19.3331 25.3222C19.1379 25.36 18.9463 25.3917 18.7454 25.4282L18.7813 25.625L18.8171 25.8218C19.0083 25.787 19.2123 25.753 19.4091 25.7149L19.3711 25.5186ZM18.7813 25.625V25.425H4.96583V25.625V25.825H18.7813V25.625ZM4.96583 25.625L5.00114 25.4282C4.82234 25.3961 4.64036 25.3626 4.45881 25.3312L4.42481 25.5283L4.39081 25.7254C4.57064 25.7564 4.74922 25.7893 4.93051 25.8219L4.96583 25.625ZM4.42481 25.5283L4.4589 25.3313C2.51872 24.9957 1.2012 23.5929 1.20001 21.8905L1.00001 21.8906L0.800006 21.8908C0.801365 23.8264 2.29979 25.3638 4.39073 25.7254L4.42481 25.5283ZM1.00001 21.8906L1.20001 21.8905C1.19937 21.0496 1.24889 20.2048 1.35562 19.3701L1.15723 19.3447L0.958848 19.3194C0.849802 20.1722 0.799363 21.0341 0.800006 21.8908L1.00001 21.8906ZM1.15723 19.3447L1.35561 19.3702C1.49895 18.2513 1.82591 17.1772 2.43064 16.1831L2.25977 16.0791L2.0889 15.9752C1.44986 17.0257 1.10794 18.1556 0.958854 19.3193L1.15723 19.3447ZM2.25977 16.0791L2.43065 16.183C3.1394 15.0177 4.16119 14.2319 5.6438 13.9424L5.60547 13.7461L5.56715 13.5498C3.96739 13.8622 2.85244 14.7198 2.08889 15.9752L2.25977 16.0791ZM5.60547 13.7461L5.64384 13.9424C6.42508 13.7897 7.11481 13.8032 7.73215 14.2456L7.84864 14.083L7.96513 13.9204C7.21618 13.3838 6.39219 13.3886 5.56711 13.5498L5.60547 13.7461ZM7.84864 14.083L7.73231 14.2457C8.0152 14.448 8.33897 14.6089 8.62803 14.7641L8.72266 14.5879L8.81729 14.4117C8.5114 14.2474 8.22085 14.1033 7.96497 13.9203L7.84864 14.083ZM8.72266 14.5879L8.6278 14.764C9.48779 15.2273 10.4212 15.5289 11.4327 15.598L11.4463 15.3985L11.4599 15.1989C10.5126 15.1342 9.63412 14.8518 8.81752 14.4118L8.72266 14.5879ZM11.4463 15.3985L11.4326 15.598C12.8195 15.6929 14.0802 15.3396 15.2372 14.6932L15.1397 14.5186L15.0421 14.344C13.9414 14.959 12.7573 15.2877 11.4599 15.1989L11.4463 15.3985ZM15.1397 14.5186L15.2372 14.6932C15.6249 14.4767 15.9663 14.2576 16.3468 14.0736L16.2598 13.8936L16.1727 13.7135C15.7797 13.9035 15.4012 14.1435 15.0422 14.3439L15.1397 14.5186ZM16.2598 13.8936L16.3469 14.0736C16.5883 13.9568 16.8293 13.858 17.0435 13.8543L17.04 13.6543L17.0366 13.4543C16.7246 13.4597 16.4114 13.598 16.1727 13.7135L16.2598 13.8936ZM17.5488 15.044L17.5946 14.8493C17.2555 14.7696 16.9528 14.8616 16.6823 15.0238L16.7852 15.1953L16.888 15.3669C17.1015 15.2389 17.2969 15.1902 17.5031 15.2387L17.5488 15.044ZM16.7852 15.1953L16.6824 15.0238C15.8826 15.5028 15.0887 15.9483 14.1852 16.2217L14.2432 16.4131L14.3011 16.6045C15.2553 16.3158 16.0854 15.8476 16.8879 15.3669L16.7852 15.1953ZM14.2432 16.4131L14.1852 16.2217C11.9988 16.8838 9.95353 16.5984 7.99366 15.5653L7.9004 15.7422L7.80713 15.9191C9.85052 16.9963 12.0041 17.3001 14.3011 16.6045L14.2432 16.4131ZM7.9004 15.7422L7.99359 15.5652C7.71669 15.4194 7.45627 15.2894 7.23233 15.1235L7.11329 15.2842L6.99425 15.4449C7.2491 15.6337 7.54404 15.7806 7.8072 15.9192L7.9004 15.7422ZM7.11329 15.2842L7.23207 15.1233C6.76477 14.7783 6.26938 14.7993 5.78128 14.9041L5.82325 15.0996L5.86521 15.2952C6.31187 15.1993 6.66497 15.2018 6.99451 15.4451L7.11329 15.2842ZM5.82325 15.0996L5.7812 14.9041C4.68086 15.1407 3.96736 15.7807 3.45028 16.6122L3.62012 16.7178L3.78996 16.8234C4.2638 16.0614 4.89447 15.5039 5.8653 15.2952L5.82325 15.0996ZM3.62012 16.7178L3.45028 16.6122C2.88472 17.5218 2.61917 18.5087 2.47967 19.5055L2.67774 19.5332L2.87581 19.5609C3.01081 18.5963 3.26414 17.6691 3.78997 16.8234L3.62012 16.7178ZM2.67774 19.5332L2.47969 19.5054C2.3852 20.178 2.3367 20.8586 2.32251 21.5339L2.52247 21.5381L2.72242 21.5423C2.73633 20.8803 2.78384 20.2157 2.8758 19.561L2.67774 19.5332ZM2.52247 21.5381L2.32251 21.5341C2.30481 22.4273 2.57666 23.1592 3.12842 23.6699C3.67685 24.1776 4.47547 24.4425 5.46527 24.4597L5.46876 24.2598L5.47224 24.0598C4.54548 24.0436 3.85413 23.7967 3.40015 23.3764C2.9495 22.9592 2.70648 22.347 2.72243 21.5421L2.52247 21.5381ZM5.46876 24.2598L5.46528 24.4597C7.13182 24.4887 8.80188 24.4684 10.4628 24.4695L10.4629 24.2695L10.463 24.0695C8.79513 24.0684 7.13448 24.0887 5.47223 24.0598L5.46876 24.2598ZM10.4629 24.2695V24.4695H11.8643V24.2695V24.0695H10.4629V24.2695ZM11.8643 24.2695V24.4695C13.9201 24.4695 15.9754 24.4697 18.0314 24.4686L18.0313 24.2686L18.0311 24.0686C15.9754 24.0697 13.9201 24.0695 11.8643 24.0695V24.2695ZM18.0313 24.2686L18.0313 24.4686C18.6314 24.4686 19.246 24.4125 19.8199 24.1596L19.7393 23.9766L19.6586 23.7936C19.16 24.0132 18.611 24.0686 18.0313 24.0686V24.2686ZM19.7393 23.9766L19.8198 24.1596C20.3389 23.9312 20.7334 23.6156 21.0003 23.2227C21.2674 22.8295 21.3989 22.3704 21.4099 21.8677L21.21 21.8633L21.01 21.8589C21.0005 22.2956 20.8873 22.6772 20.6694 22.9979C20.4514 23.3188 20.1209 23.5902 19.6587 23.7935L19.7393 23.9766ZM21.21 21.8633L21.4099 21.8677C21.4447 20.28 21.2952 18.6839 20.5885 17.1703L20.4072 17.2549L20.226 17.3395C20.8956 18.7736 21.0442 20.2994 21.01 21.8589L21.21 21.8633ZM20.4072 17.2549L20.5884 17.1702C20.2192 16.3799 19.7121 15.6063 18.7585 15.1852L18.6777 15.3682L18.597 15.5511C19.4196 15.9144 19.8725 16.5829 20.226 17.3396L20.4072 17.2549ZM18.6777 15.3682L18.7585 15.1852C18.3866 15.0211 17.9662 14.9368 17.5947 14.8493L17.5488 15.044L17.503 15.2386C17.8959 15.3312 18.2682 15.4061 18.597 15.5512L18.6777 15.3682ZM12.0186 1.00001L12.019 1.20001C15.4572 1.19318 18.2015 3.9014 18.2053 7.29613L18.4053 7.29591L18.6053 7.29569C18.6013 3.67568 15.6732 0.792752 12.0182 0.800014L12.0186 1.00001ZM18.4053 7.29591L18.2053 7.29613C18.209 10.687 15.4663 13.4168 12.0407 13.4231L12.041 13.6231L12.0414 13.8231C15.6845 13.8164 18.6093 10.9106 18.6053 7.29569L18.4053 7.29591ZM12.041 13.6231L12.0407 13.4231C8.63104 13.4293 5.86005 10.6837 5.85919 7.30465L5.65919 7.3047L5.45919 7.30475C5.46011 10.908 8.41361 13.8297 12.0414 13.8231L12.041 13.6231ZM5.65919 7.3047L5.85919 7.30463C5.85793 3.93351 8.60469 1.20707 12.019 1.20001L12.0186 1.00001L12.0181 0.800014C8.38739 0.807523 5.45785 3.70885 5.45919 7.30478L5.65919 7.3047ZM12.044 2.53322L12.0446 2.33322C9.26803 2.32455 7.02829 4.54168 7.02559 7.30548L7.22559 7.30568L7.42559 7.30587C7.42807 4.76537 9.48597 2.72523 12.0433 2.73322L12.044 2.53322ZM7.22559 7.30568L7.02559 7.30554C7.02365 10.0795 9.25334 12.2515 12.0393 12.2762L12.041 12.0762L12.0428 11.8762C9.46773 11.8534 7.42381 9.85142 7.42559 7.30582L7.22559 7.30568ZM12.041 12.0762L12.0393 12.2762C14.7107 12.2995 17.0774 10.077 17.0564 7.29343L16.8565 7.29494L16.6565 7.29644C16.6756 9.84789 14.4995 11.8977 12.0428 11.8762L12.041 12.0762ZM16.8565 7.29494L17.0564 7.29345C17.036 4.54049 14.8172 2.34208 12.0446 2.33322L12.044 2.53322L12.0433 2.73322C14.5988 2.74139 16.6377 4.76485 16.6565 7.29642L16.8565 7.29494Z" fill="black" mask="url(#path-1-outside-1_1_945)"/>
</svg>
